<?xml version="1.0" encoding="UTF-8"?>
<svg width="138.61mm" height="28.904mm" version="1.1" viewBox="0 0 138.61 28.904" xmlns="http://www.w3.org/2000/svg">
 <g transform="translate(95.966,-1.9512)" fill="#333" stroke-width=".26458" aria-label="  M. E. Mills Est 1909 ~ Brookton  NY">
  <path d="m-77.247 7.6412h0.254-0.0254c0.0762-0.127 0.127-0.254 0.2032-0.381-0.254-0.127-0.5334-0.254-0.7874-0.381v0.9652c0.127-0.0762 0.254-0.1524 0.3556-0.2032zm0.2286 0h-0.2032c0.0254-0.0508 0.0508-0.0508 0.1016-0.0508 0.0254 0 0.0762 0 0.1016 0.0508zm-1.0668-1.4224c-0.1524-0.1016-0.3048-0.2032-0.4318-0.2794 0.0508 0.2794 0.0762 0.381 0.1778 0.381 0.0508 0 0.127-0.0254 0.254-0.1016zm-0.4318-0.2794v-0.0508c-0.0254 0-0.0254 0-0.0254 0.0254zm0.6604-0.0508c0.0762-0.0254 0.1524-0.0762 0.254-0.127h-0.2794c0 0.0508 0.0254 0.1016 0.0254 0.127zm0.2286-0.127h0.0508zm-13.995 1.4986-0.0254-0.0254-0.0254 0.0508zm18.136 13.106c-0.4318-1.0922-0.508-2.2606-0.4826-3.429 0.0254-1.8288-0.0762-3.6576 0-5.5118 0.0508-1.5748-0.0254-3.1496-0.0254-4.7244-0.0254-1.4986 0.254-2.9464 0.9652-4.2926 0.0508-0.0762 0.0254-0.1778 0.0508-0.3302-0.2286-0.0254-0.4318-0.0762-0.635-0.0762-1.8288-0.0254-3.6576-0.0254-5.5118-0.0254-0.1524 0-0.3048 0.0254-0.4572 0.0254-0.7112 0.0508-1.0922 0.635-1.27 1.2446-0.8382 2.286-1.8796 4.4704-2.8956 6.6802-0.3302 0.7112-0.6604 1.4224-1.2192 2.1844-0.4318-0.635-0.8128-1.143-1.1176-1.7018-1.27-2.2098-2.4892-4.4704-3.7338-6.6802-0.2794-0.4826-0.5588-0.9398-0.8382-1.3716-0.2032-0.3048-0.4826-0.4064-0.8128-0.4064-1.3208 0-2.667 0.0254-3.9878 0.0508-0.1524 0-0.2794 0.0254-0.508 0.0762 0.1016 0.254 0.1778 0.4572 0.2794 0.635 0.7112 1.143 0.889 2.8702 0.889 4.2164 0.0254 1.651 0.0254 3.2766 0 4.9276 0 1.9812-0.0254 3.9878-0.0508 5.969 0 1.1938-0.3048 2.3114-0.889 3.3528-0.0762 0.1524-0.1016 0.3302-0.1524 0.4826 0.127 0.0762 0.1778 0.1016 0.2286 0.1016 1.5494 0.0254 3.0988 0.0254 4.6482 0.0254 0.1524-0.0254 0.2794-0.1016 0.4318-0.1778-0.635-1.1938-1.0922-2.413-1.0922-3.7338v-4.5466c0-0.127-0.0508-0.3302 0.2032-0.4064 0.0508 0.0508 0.1016 0.127 0.1524 0.2032 1.3208 2.1844 2.6162 4.3942 3.9624 6.5786 0.254 0.4572 0.5588 0.9144 0.8636 1.3462 0.127 0.1524 0.2794 0.2032 0.4318 0.2032s0.3302-0.0762 0.4572-0.254c0.254-0.4826 0.508-0.9652 0.7366-1.4478 1.2192-2.667 2.4384-5.3086 3.7338-7.9502 0.2794-0.5842 0.6096-1.1684 1.016-1.905 0.0762 0.3302 0.127 0.4572 0.127 0.6096-0.0254 2.5908 0 5.1816-0.0508 7.7724 0 1.0414-0.254 2.0574-0.7874 2.9972-0.0762 0.1778-0.1016 0.4064-0.1778 0.635 0.2032 0.0254 0.3048 0.0762 0.4318 0.0762h7.2136c0.127 0 0.254-0.0762 0.4318-0.127-0.2032-0.4826-0.381-0.889-0.5588-1.2954zm-16.51-11.252-0.0254 0.0762-0.0254-0.0762zm-0.6858 1.9304h-0.1778c0.127-0.3302 0.4318-0.5842 0.1778-1.0668 0.0762 0.0254 0.1524 0.0254 0.2286 0.0254 0.127 0.1778 0.254 0.381 0.381 0.5588-0.2032 0.1524-0.4064 0.3302-0.6096 0.4826zm0.5588-2.9464c0.0254 0.1524 0.0254 0.3302 0.0508 0.5334-0.1778-0.254-0.2032-0.254-0.0508-0.5334zm-0.3048 1.143c-0.2032 0.0508-0.381 0.0762-0.5334 0.1524-0.127 0.0508-0.2286 0.1778-0.3302 0.2794-0.0762-0.3048-0.127-0.5588 0.2032-0.762 0.0508-0.0254 0.0254-0.2032 0.0508-0.3302 0.0508-0.0508 0.1016-0.1016 0.1524-0.1778 0.381 0.1524 0.1524 0.5842 0.4572 0.8382zm-0.4572-0.8636h-0.1524c0.0508-0.0508 0.1016-0.1016 0.127-0.1524 0 0.0508 0.0254 0.1016 0.0254 0.1524zm-0.2032 0.0254c0 0.0508 0 0.127 0.0254 0.1778h-0.1778v-0.1778zm0.0762-1.1176c-0.0254 0.0254-0.0508 0.1016-0.1016 0.127-0.0254 0.0254-0.0762 0.0254-0.127 0.0254 0.0254-0.0508 0.0508-0.1016 0.0762-0.127 0.0508-0.0508 0.1016-0.0254 0.1524-0.0254zm-0.3302-0.4572c0.0254 0 0.0508-0.0254 0.0762-0.0254 0 0 0.0254 0.0254 0.0254 0.0508-0.0254 0-0.0508 0.0254-0.1016 0.0508zm-0.508-0.2794c0 0.0254 0 0.0508-0.0254 0.0762-0.0254 0-0.0508 0.0254-0.0762 0.0254 0.0254-0.0254 0.0508-0.0762 0.1016-0.1016zm-0.1778 0.1524c0.1524 0.1778 0.2794 0.3556 0.4064 0.5334 0.1016 0.0762 0.2286 0.1524 0.3302 0.2032 0.0508 0.3048 0.1778 0.6096 0.0508 0.9398-0.0762-0.0762-0.1778-0.127-0.1778-0.1778-0.0254-0.4064-0.2794-0.5588-0.635-0.6096-0.3048-0.508-0.3048-0.5334 0.0254-0.889zm-0.0254 0.9398c0.0508 0.1778 0.0762 0.3556 0.127 0.5588-0.381-0.1778-0.1778-0.381-0.127-0.5588zm-0.5588-0.1778c0.0762 0.0254 0.1524 0.0762 0.2032 0.1016-0.0762 0.127-0.1016 0.1778-0.127 0.2286-0.0508-0.0762-0.1016-0.127-0.1524-0.2032 0-0.0254 0.0762-0.127 0.0762-0.127zm0.508 1.3462c0.2286 0.1016 0.4318 0.2286 0.254 0.5334h-0.7112c0.2032-0.2286 0.3302-0.381 0.4572-0.5334zm-0.1778 1.0414-0.0508-0.0508h0.0762zm0.4826 0.6096c0-0.381 0.3048-0.508 0.508-0.7366l0.1524 0.1524c0.2286 0.2794 0.2286 0.2794-0.1016 0.5842h-0.2032zm0.5334 0.8382h0.0762c0-0.1778 0.0762-0.254 0.1778-0.254 0.0508 0 0.1016 0 0.1524 0.0254 0.0508 0.0508 0.1016 0.127 0.1524 0.1778 0 0.0762 0 0.127-0.0254 0.1778-0.1524-0.0508-0.3048-0.1016-0.4572-0.127zm0.5842 0.1524h0.5842c0.0762-0.127 0.1524-0.2286 0.3556-0.508-0.0254 0.3556-0.0254 0.5334-0.0508 0.6858-0.0508 0-0.0762 0-0.127-0.0254-0.1016 0.0762-0.2032 0.1016-0.2794 0.1016-0.1778 0-0.3302-0.127-0.4826-0.254zm0.6096-0.889c0.0508-0.254 0.0508-0.4826 0.1016-0.7366 0.0508-0.1778 0.1524-0.3556 0.3556-0.3556 0.0508 0 0.0762 0.0254 0.127 0.0254-0.0254 0.2286-0.0508 0.4064-0.0762 0.6096-0.1778 0.1524-0.1778 0.4826-0.508 0.4572zm0.5334-0.4318c0.1524-0.0254 0.2794-0.0508 0.4826-0.0762-0.0762 0.3048-0.127 0.5334-0.2032 0.8382-0.254-0.254-0.254-0.508-0.2794-0.762zm0.5842 2.2606c-0.0254-0.0254-0.0762-0.0762-0.127-0.1016 0.0254-0.0254 0.0508-0.0762 0.0762-0.1016 0.0508 0.0508 0.0762 0.0762 0.1016 0.127 0 0.0254-0.0254 0.0508-0.0508 0.0762zm0.2032-1.143c0.0508 0 0.0762 0.0254 0.127 0.0254-0.0254 0.0254-0.0508 0.0762-0.0762 0.1016 0-0.0254-0.0254-0.0762-0.0508-0.127zm1.3208 1.8796c-0.0254 0-0.0508-0.0254-0.1778-0.0762 0.127-0.0508 0.1524-0.0762 0.1778-0.0508 0.127 0 0.2286 0.0254 0.3302 0.0508 0.0254 0 0 0.0762 0 0.0762zm0.4826 1.2446c-0.0254 0-0.0762 0.0254-0.1016 0.0254-0.1016 0-0.1524-0.0762-0.1778-0.1778 0-0.0508 0.0508-0.1524 0.0762-0.1524 0.1016 0.0254 0.2032 0.0762 0.3302 0.127-0.0762 0.1016-0.1016 0.1778-0.127 0.1778zm0.889-0.6858h-0.0254c0.1016 0.0254 0.1778 0.0254 0.2794 0.0254-0.0254 0.0254-0.0762 0.0508-0.127 0.0508-0.0254 0-0.0762-0.0254-0.127-0.0762zm0.3048 0.0254v-0.1524c0.0762 0.0508 0.127 0.1016 0.1778 0.127-0.0508 0-0.1016 0-0.1778 0.0254zm9.6012 1.6256c-0.0508 0-0.0762-0.0254-0.127-0.0762l0.2032 0.0508c-0.0254 0.0254-0.0508 0.0508-0.0762 0.0254zm-1.5748-2.2098h0.6858c0 0.0762 0 0.127 0.0254 0.1778-0.2032 0.1778-0.4064 0.3556-0.5842 0.5334-0.0508-0.2286-0.0762-0.4826-0.127-0.7112zm-0.0254-3.7592h0.3302c-0.0508 0.1016-0.1016 0.2286-0.1778 0.3302-0.0508-0.1016-0.1016-0.2286-0.1524-0.3302zm0.1778 1.8034c-0.127-0.1778-0.2794-0.3556-0.4064-0.5334l0.0254 0.0254c0.0254-0.1016 0.0254-0.2032 0.0508-0.3302 0.1016 0.0762 0.254 0.1016 0.2794 0.1778 0.0254 0.2286 0.0254 0.4572 0.0508 0.6604zm0 0.0762c0.0762 0.0508 0.1524 0.1016 0.2286 0.127-0.0762 0.0762-0.127 0.1778-0.1778 0.1778-0.1524-0.0254-0.2794-0.0762-0.4064-0.1016 0.1016-0.0762 0.2286-0.1524 0.3556-0.2032zm0.762-2.6416c0.1016 0.0508 0.2286 0.127 0.3302 0.1778-0.1016 0.0508-0.2286 0.1016-0.3302 0.1778zm0.4826 1.2954c-0.2794-0.0254-0.5842-0.0254-0.8636-0.0254 0.1778-0.2032 0.2794-0.3302 0.381-0.3302s0.2286 0.127 0.4826 0.3556zm0.2032 0.0762c0 0.0254 0 0.0762-0.0254 0.127 0-0.0254-0.0254-0.0254-0.0508-0.0508s-0.0254-0.0762-0.0508-0.127c0.0508 0.0254 0.0762 0.0254 0.127 0.0508zm-0.381 2.7178c0.0508 0.2032 0.0762 0.3556 0.1016 0.5334-0.2286-0.0508-0.4318-0.0762-0.6096-0.1016 0.1524-0.127 0.3048-0.254 0.508-0.4318zm-0.1016-1.2192h0.2286v0.0508c-0.0762 0-0.1524-0.0254-0.2286-0.0508zm-0.6096-1.0922h0.1016c0.1778 0 0.3556 0.0254 0.508 0.0254 0.2032 0.4064 0.1016 0.7366-0.1016 1.0414-0.1016-0.0254-0.2286-0.0508-0.2794-0.1016-0.1016-0.2286-0.1778-0.4572-0.254-0.6858l0.0254 0.0254c-0.1016-0.1016-0.1524-0.254 0-0.3048zm0.3048 1.6002c-0.0762 0.1016-0.1778 0.2032-0.254 0.3048-0.0762 0.0762-0.127 0.1524-0.2032 0.2286-0.1016-0.0508-0.1778-0.127-0.2794-0.1778 0.0508-0.1016 0.1016-0.254 0.1778-0.2794 0.1778-0.0508 0.381-0.0508 0.5588-0.0762zm-0.3048 2.5146c-0.0508 0.1778-0.1778 0.2794-0.381 0.2794 0.0762-0.1524 0.1778-0.2794 0.381-0.2794zm0.2032 0.5588c0.127-0.127 0.2286-0.254 0.3556-0.4064 0.1016 0.2032 0.2032 0.4064 0.3302 0.6096-0.3048 0.0508-0.635 0.1016-0.9398 0.1524-0.0762 0-0.127-0.0508-0.2032-0.0762 0.1778-0.1016 0.3302-0.1778 0.4572-0.2794zm0.3556-0.4318c-0.1016-0.1524-0.2032-0.2032-0.3302-0.2032-0.0508 0-0.127 0-0.1778 0.0254 0-0.0762 0-0.1778 0.0254-0.2286 0.2794-0.2794 0.2286-0.5588 0.1524-0.889 0.254 0.2286 0.5842 0.2286 0.889 0.2286-0.0762 0.127-0.1524 0.2286-0.254 0.381 0.1778 0.1778 0.3556 0.3302 0.508 0.508-0.0508 0.0508-0.0762 0.127-0.1016 0.127-0.254 0.0254-0.4826 0.0254-0.7112 0.0508zm0.6604-2.1082c0-0.0254 0.0508-0.0762 0.1016-0.1778 0.0762 0.0762 0.1524 0.127 0.1778 0.1778s-0.0762 0.127-0.1016 0.2032c-0.0508-0.0762-0.127-0.127-0.1778-0.2032zm-0.0508-1.4986s0.0254-0.0508 0.0508-0.0508c0.0254 0.0254 0.0762 0.0508 0.1016 0.1016 0 0-0.0254 0.0254-0.0254 0.0508-0.0508-0.0254-0.1016-0.0762-0.127-0.1016zm-0.0254-6.0452c0.0254-0.1016 0.0508-0.1778 0.0762-0.3556 0.254 0.2032 0.381 0.4064 0.3048 0.6858h-0.2032c-0.0762-0.127-0.127-0.2286-0.1778-0.3556zm0.1524 0.4318s0 0.0254-0.0254 0.0508c0.0254-0.0254 0.0254-0.0508 0.0254-0.0508zm0.1778 0.5842c-0.127 0.254-0.3302 0.2794-0.5334 0.2794 0.127-0.1524 0.2794-0.2794 0.5334-0.2794zm-0.762-0.4318c0-0.0508 0.0762-0.0762 0.1524-0.127 0 0.1016 0.0508 0.1778 0.0254 0.254-0.0254 0.0508-0.1016 0.0762-0.1778 0.1016zm-0.6604-0.2032c0.0762 0.127 0.0508 0.254 0 0.3556zm-0.0254-0.0508c-0.2286-0.0762-0.2286-0.2794-0.2286-0.4572 0.3556 0.0254 0.254 0.254 0.2286 0.4572zm-0.4572-1.143c0.0254 0.0508 0.0508 0.1016 0.0508 0.1524l-0.0762-0.0762s0.0254-0.0508 0.0254-0.0762zm-1.8796 1.397v-0.0508zm0.0508 0.7366c0.0762 0.0254 0.127 0.0762 0.2032 0.127-0.0762 0.0254-0.1778 0.0254-0.254 0.0254-0.0254 0-0.0508-0.0254-0.0762-0.0508 0.0508-0.0508 0.1016-0.1016 0.127-0.1016zm0.381 2.3368 0.0508-0.0508v0.0762zm0.4826 0.1524c-0.0254-0.0254-0.0508-0.0254-0.0762-0.0254 0-0.0254 0.0254-0.0508 0.0254-0.0762h0.0508zm0.4572-1.3208h0.1778v0.3556c-0.1524-0.0762-0.1778-0.2286-0.1778-0.3556zm0.1778 0.381h0.2032c-0.0508-0.127-0.127-0.254-0.1778-0.381-0.0508-0.0508-0.0762-0.1016-0.127-0.1016-0.0254 0-0.0762 0.0254-0.1016 0.0762-0.0762 0.1016-0.2286 0.254-0.2286 0.2286-0.127-0.0762-0.2286-0.1016-0.3302-0.1016-0.1778 0-0.3302 0.0762-0.508 0.1778-0.0508 0-0.127-0.0762-0.2286-0.127 0.0254-0.0762 0.0508-0.1778 0.0508-0.254 0.0254-0.254 0.0254-0.3556-0.127-0.3556-0.0508 0-0.1524 0.0254-0.254 0.0508 0.0762-0.254 0.1016-0.3302 0.2794-0.3302 0.0508 0 0.1524 0 0.254 0.0254 0.2032 0.2794 0.3048 0.4064 0.4318 0.4064 0.1016 0 0.2286-0.1016 0.4572-0.254h0.0508-0.0508l-0.0254-0.0254c-0.381-0.2032-0.6096-0.508-0.6858-0.9398 0.1778 0 0.3556-0.0254 0.5334-0.0508-0.4064-0.4572-0.4064-0.4826 0.0762-0.9906 0.127 0.0762 0.2286 0.3048 0.381 0.3048 0.0508 0 0.1016 0 0.1778-0.0508 0.127 0.2032 0.254 0.4064 0.3556 0.6096 0.1524 0 0.2794 0.0254 0.4064 0.0254 0.2794 0.2286 0.3302 0.5588 0.3302 0.9144-0.127 0.127-0.0508 0.254 0 0.381v-0.4064c0.1778-0.1016 0.3556-0.2286 0.5334-0.3556 0.0254 0.3556 0.0254 0.6858 0.0508 1.0922 0.1524-0.127 0.254-0.2032 0.3556-0.3048 0.1016 0.4064-0.0254 0.762-0.2032 1.143l0.0254-0.0254c0.0254 0.2032-0.0254 0.4318 0.1778 0.5842 0 0.254-0.127 0.4064-0.3556 0.508-0.0508-0.1778-0.127-0.381-0.1778-0.5588 0.2032-0.3048-0.0254-0.508-0.2032-0.7112l0.0254-0.0254c-0.2032 0.127-0.2794 0.3302-0.2286 0.5588-0.254 0.1524-0.254 0.1778 0 0.381-0.0508 0.3302-0.3556 0.2794-0.5588 0.381-0.0508-0.127-0.1016-0.2032-0.127-0.3302s-0.0254-0.2794-0.0508-0.4318c0.0762-0.0508 0.0508-0.127-0.0254-0.2032v0.1778c-0.0762-0.0508-0.127-0.127-0.2032-0.1778-0.1524-0.0254-0.3302-0.0508-0.6604-0.127 0.2286-0.1778 0.3556-0.3048 0.4826-0.4064zm0 1.524c0.0508 0.2032 0.1778 0.3048 0.381 0.3556-0.0254 0.2032-0.1016 0.2286-0.2032 0.2286h-0.3048s-0.0508-0.0254-0.0762-0.0508c-0.127-0.254 0.0762-0.381 0.2032-0.5334zm0.1524 3.7338h-0.0508zm0.0254 1.016c0.0254-0.0508 0.0762-0.127 0.127-0.2032 0 0 0.0254 0 0.0508-0.0254 0.0254 0.0254 0.0254 0.0508 0.0254 0.0762-0.0254 0.0762-0.0508 0.1524-0.0508 0.2286zm0.1778 0.6858v0.0508zm0.6604 2.8956c-0.0508-0.0508-0.127-0.0762-0.2032-0.127-0.0254-0.0254-0.0254-0.0508-0.0508-0.0762-0.0508-0.0254-0.127-0.0254-0.2032-0.0254-0.0762-0.254-0.0762-0.2794-0.0508-0.5842 0.0762 0.0762 0.5334 0.4572 0.5334 0.5588 0 0.0762 0 0.1778-0.0254 0.254zm0.254-1.143c-0.0762 0.0254-0.127 0.0508-0.2032 0.0508-0.1778 0-0.2794-0.1524-0.381-0.4826 0.127 0 0.2032 0.2032 0.3302 0.2032 0.0508 0 0.1016-0.0254 0.1778-0.127 0.0254-0.0254 0.1524 0.0254 0.2286 0.0508-0.0508 0.1016-0.0762 0.254-0.1524 0.3048zm0.2286 1.27v-0.0762l0.0762 0.0254zm0.3048 0.635c-0.0254 0-0.1016-0.0508-0.1524-0.0762 0.0508-0.0762 0.0762-0.1524 0.127-0.2032 0.0254 0 0.1016 0.0508 0.1524 0.0762-0.0254 0.0762-0.0762 0.1524-0.127 0.2032zm0.4826-2.1336c-0.127-0.0508-0.254-0.0762-0.381-0.127 0.0254-0.0254 0.0762-0.0508 0.127-0.0762 0.1016-0.0762 0.3048-0.254 0.3302-0.2286 0.2286 0.1778 0 0.2794-0.0762 0.4318zm0.2032-8.0264c-0.0254-0.0508-0.0762-0.1016-0.0762-0.1524s0.0508-0.1016 0.0508-0.1524c0.0508 0.0254 0.0762 0.0508 0.1524 0.1016-0.0508 0.0508-0.1016 0.127-0.127 0.2032z"/>
  <g fill="#333">
   <path d="m-69.305 22.399c1.0922 0 1.9812-0.889 1.9812-1.9812s-0.889-1.9812-1.9812-1.9812-1.9558 0.889-1.9558 1.9812 0.8636 1.9812 1.9558 1.9812z"/>
   <path d="m-59.08 2.485c0.7366 1.3716 0.9144 2.8702 0.9398 4.3942 0.0254 3.175 0.0508 6.3246 0.0508 9.4742-0.0254 1.7526-0.2286 3.4798-1.0414 5.0546-0.0254 0.0762-0.0254 0.1778-0.0254 0.254 0.0508 0.0508 0.1016 0.127 0.1524 0.127 0.4572 0.0254 0.9144 0.0508 1.3716 0.0508 0.381 0 0.7874-0.0254 1.1684-0.1016 0.254-0.0508 0.508-0.0762 0.762-0.0762s0.508 0.0254 0.7366 0.0762c0.3556 0.0508 0.6858 0.0762 0.9906 0.0762 0.3302 0 0.6604-0.0254 0.9906-0.0254 0.127 0 0.254-0.1016 0.381-0.0762 0.4572 0.127 0.9398 0.1524 1.397 0.127h1.4224c0.5588 0.0254 1.1176 0.0254 1.6764 0.0254 1.1176 0 2.2606-0.0254 3.4544-0.0254 0.0254-0.3048 0.0508-0.4826 0.0254-0.6604-0.0762-0.8128-0.2286-1.6256-0.2286-2.4384 0-1.0414 0.127-2.0828 0.508-3.0734 0.0254-0.0762 0.0508-0.1778 0.0508-0.2794 0.0254-0.2286-0.127-0.4572-0.3556-0.4318-0.508 0.0254-0.9906 0.0762-1.4478 0.4064-0.9144 0.635-1.6256 1.6002-2.1336 2.5908-0.254 0.4826-0.635 0.7112-1.143 0.7112-0.6096 0.0254-1.1938 0.0508-1.8034 0.0508-0.7112 0-1.016-0.2286-1.0414-0.9398-0.0762-1.0414-0.0762-2.0828-0.0508-3.1242 0-0.7874 0.6858-1.7272 1.524-1.7272 0.6604 0 1.143 0.5842 1.524 1.0414 0.1524 0.1524 0.3048 0.2286 0.4826 0.2286 0.0508 0 0.127 0 0.2032-0.0254 0.1778-0.0254 0.3556-0.1524 0.4826-0.254 0.7366-0.635 0.9398-1.9558 0.4572-2.8956s-1.016-1.143-2.0066-1.143c-0.4318 0-0.8636 0.0508-1.27 0.3048-0.2286 0.1524-0.508 0.254-0.762 0.3302-0.1016 0.0508-0.2032 0.0508-0.2794 0.0508-0.2286 0-0.3556-0.1524-0.3556-0.4826 0-1.016 0.0254-2.0066 0.0508-3.0226 0.0254-0.3556 0.0762-0.6858 0.127-1.0414 0.0762-0.5588 0.4318-0.8636 1.016-0.9144h1.1176c0.254 0 0.4826-0.0254 0.6604-0.0254 0.4826 0 0.6858 0.1524 1.2954 1.1684 0.5588 1.016 1.7526 2.5654 3.048 2.5654 0.2032 0 0.4064-0.0254 0.6096-0.1016 0.1524-0.7874-0.381-1.4732-0.381-2.2098 0-0.762-0.127-1.524-0.1016-2.2606 0.0508-0.7366 0.1524-1.4732 0.2286-2.2606h-14.147c-0.1778 0-0.3302 0.0254-0.4064 0.254 0.0254 0.0762 0.0254 0.1778 0.0762 0.254zm3.2512 8.2042c0.1778 0.1778 0.3556 0.3302 0.5334 0.4826 0.1778-0.1524 0.0508-0.3556 0.127-0.508 0.0254-0.0762 0.1524-0.127 0.254-0.1778 0.0508 0.254 0.1016 0.508 0.1778 0.7366v0.0254c-0.1016 0.127-0.1016 0.254 0 0.381 0 0.0508 0 0.127-0.0254 0.1778 0.0762 0.0254 0.127 0.0508 0.1778 0.0508-0.0508 0.0508-0.1016 0.1016-0.1778 0.1524-0.7874 0-1.016-0.635-1.0668-1.3208zm0.1524-3.429c0.0762-0.3048 0.254-0.508 0.5588-0.5334 0 0.2794 0.2032 0.381 0.381 0.5334l-0.0254 0.0254 0.0508-0.0254c0.0508 0.1778 0.0254 0.3048-0.1778 0.3302h-0.4572c-0.1016-0.127-0.2032-0.2286-0.3302-0.3302zm0.9398 5.1308c0.0762 0 0.1524-0.0254 0.2286-0.0254-0.2286 0.254 0.127 0.5588-0.2286 0.7366-0.0508-0.0508-0.1016-0.0508-0.1524-0.0508-0.1524 0-0.2286 0.1778-0.381 0.254-0.0508-0.1016-0.127-0.2286-0.1778-0.3556 0.254-0.1016 0.381-0.4318 0.7112-0.5588zm-1.2954-3.0734c0.0508-0.127 0.1016-0.2286 0.1524-0.3302h0.0254c0.1016 0.0508 0.1524 0.1016 0.2286 0.1016 0.1016 0 0.1778-0.1016 0.3302-0.3048 0.2032 0.127 0.381 0.254 0.2286 0.5334-0.1524 0.0508-0.2794 0.0762-0.4318 0.0762-0.1778 0-0.3556-0.0254-0.5334-0.0762zm0.9906 0.7874c0.1524-0.0762 0.3048-0.1524 0.4826-0.1778 0.0762-0.0254 0.254 0.0762 0.2794 0.1524 0.0254 0.127-0.0762 0.1778-0.2032 0.2032-0.0508 0.2032-0.0762 0.2794-0.1524 0.2794-0.0508 0-0.127-0.0508-0.2794-0.1016-0.0508-0.127-0.1016-0.2286-0.127-0.3556zm-0.889 5.588c0.508 0.2032 0.9144 0.4318 1.3208 0.635l-1.2192-0.1524c-0.0254-0.127-0.0508-0.254-0.1016-0.4826zm1.9812-3.9116v-0.3302c0.2032 0 0.3556 0.0254 0.4826 0.2032-0.1524 0.0508-0.3302 0.0762-0.4826 0.127zm-2.159-4.4196 0.4064-0.1016v0.4572c-0.1524-0.1524-0.254-0.2286-0.4064-0.3556zm1.7018 3.81h0.127c0.2032 0 0.2286 0.127 0.2794 0.2286-0.1016-0.0508-0.2286-0.127-0.4064-0.2286zm-1.8288-2.8956c0.0254 0.0762 0.0762 0.1524 0.1016 0.2032 0 0.0254-0.1016 0.1016-0.127 0.0762-0.0508-0.0508-0.1016-0.127-0.127-0.1778 0.0254-0.0254 0.0762-0.0508 0.1524-0.1016zm0.6604 5.8674c0.0508-0.0254 0.0762-0.0762 0.127-0.0762s0.1016 0.0508 0.127 0.1016c0.0254 0.0254-0.0254 0.0762-0.0762 0.1524-0.0508-0.0508-0.127-0.1016-0.1778-0.1778zm1.2446-0.3302 0.1524 0.1524c-0.0508 0.0508-0.1016 0.0762-0.127 0.127-0.0254-0.0762-0.0762-0.1524-0.1016-0.2286 0-0.0254 0.0762-0.0508 0.0762-0.0508zm-2.1336 0.0762c0.0254-0.0254 0.1016-0.0762 0.127-0.0762 0.0508 0.0254 0.0762 0.0762 0.1016 0.127-0.0508 0.0254-0.1016 0.0762-0.127 0.0762-0.0508-0.0254-0.0762-0.1016-0.1016-0.127zm1.7526-2.6162c0.0762 0.1016 0.1016 0.2286 0 0.3302zm0.635-2.1082c0.0254-0.0508 0.0762-0.1016 0.127-0.1016 0.0254 0 0.0762 0.0254 0.127 0.0762-0.0762 0-0.1778 0.0254-0.254 0.0254zm-0.0762 3.7846c0.0762 0.0254 0.1524 0.0254 0.2032 0.0508-0.0508 0.0254-0.127 0.0762-0.1778 0.1016-0.0254-0.0508-0.0254-0.1016-0.0254-0.1524zm-1.1684-5.3086v0.3302c-0.1016-0.1016-0.0508-0.2032 0-0.3302zm0.9906-0.4826 0.1524 0.1524c-0.0508 0.0254-0.0762 0.0508-0.127 0.0762 0-0.0762-0.0254-0.1524-0.0254-0.2286zm-2.032 5.4102c0.1016 0.0254 0.1778 0.0254 0.254 0.0508 0 0.0254-0.0254 0.0762-0.0254 0.1016zm0.7366-3.81c0.0508-0.0254 0.1016-0.0508 0.127-0.0508 0.0762 0 0.127 0.0254 0.1778 0.0508zm-0.6096 10.084v-0.0762h0.1524v0.0762zm1.0922-0.3048c0.0254 0.0254 0.0254 0.0762 0.0254 0.0762 0 0.0254-0.0508 0.0254-0.0762 0.0508 0-0.0254-0.0254-0.0508-0.0254-0.0762 0.0254-0.0254 0.0508-0.0254 0.0762-0.0508zm-0.635-13.056c0.0254 0.0254 0.0762 0.0254 0.1016 0.0254-0.0254 0.0254-0.0508 0.0508-0.0762 0.0508 0-0.0254 0-0.0508-0.0254-0.0762zm0.7112 11.151-0.0254 0.0508-0.0508-0.0508zm0.2794-3.4544 0.0254-0.0254c-0.0254 0.0508-0.0254 0.0762-0.0508 0.1016 0-0.0254 0-0.0508 0.0254-0.0762zm-0.2794 4.064 0.0254 0.0508h-0.0508zm0.4826-9.1694c0-0.0254 0.0254-0.0254 0.0254-0.0508v0.1016c0-0.0254-0.0254-0.0508-0.0254-0.0508zm-1.8288-1.4732c0.0254 0 0.0254-0.0254 0.0508-0.0508 0 0.0254 0 0.0254-0.0254 0.0508z"/>
   <path d="m-40.68 22.399c1.0922 0 1.9812-0.889 1.9812-1.9812s-0.889-1.9812-1.9812-1.9812-1.9558 0.889-1.9558 1.9812 0.8636 1.9812 1.9558 1.9812z"/>
   <path d="m-11.812 7.6412h0.254-0.0254c0.0762-0.127 0.127-0.254 0.2032-0.381-0.254-0.127-0.5334-0.254-0.7874-0.381v0.9652c0.127-0.0762 0.254-0.1524 0.3556-0.2032zm0.2286 0h-0.2032c0.0254-0.0508 0.0508-0.0508 0.1016-0.0508 0.0254 0 0.0762 0 0.1016 0.0508zm-1.0668-1.4224c-0.1524-0.1016-0.3048-0.2032-0.4318-0.2794 0.0508 0.2794 0.0762 0.381 0.1778 0.381 0.0508 0 0.127-0.0254 0.254-0.1016zm-0.4318-0.2794v-0.0508c-0.0254 0-0.0254 0-0.0254 0.0254zm0.6604-0.0508c0.0762-0.0254 0.1524-0.0762 0.254-0.127h-0.2794c0 0.0508 0.0254 0.1016 0.0254 0.127zm0.2286-0.127h0.0508zm-13.995 1.4986-0.0254-0.0254-0.0254 0.0508zm18.136 13.106c-0.4318-1.0922-0.508-2.2606-0.4826-3.429 0.0254-1.8288-0.0762-3.6576 0-5.5118 0.0508-1.5748-0.0254-3.1496-0.0254-4.7244-0.0254-1.4986 0.254-2.9464 0.9652-4.2926 0.0508-0.0762 0.0254-0.1778 0.0508-0.3302-0.2286-0.0254-0.4318-0.0762-0.635-0.0762-1.8288-0.0254-3.6576-0.0254-5.5118-0.0254-0.1524 0-0.3048 0.0254-0.4572 0.0254-0.7112 0.0508-1.0922 0.635-1.27 1.2446-0.8382 2.286-1.8796 4.4704-2.8956 6.6802-0.3302 0.7112-0.6604 1.4224-1.2192 2.1844-0.4318-0.635-0.8128-1.143-1.1176-1.7018-1.27-2.2098-2.4892-4.4704-3.7338-6.6802-0.2794-0.4826-0.5588-0.9398-0.8382-1.3716-0.2032-0.3048-0.4826-0.4064-0.8128-0.4064-1.3208 0-2.667 0.0254-3.9878 0.0508-0.1524 0-0.2794 0.0254-0.508 0.0762 0.1016 0.254 0.1778 0.4572 0.2794 0.635 0.7112 1.143 0.889 2.8702 0.889 4.2164 0.0254 1.651 0.0254 3.2766 0 4.9276 0 1.9812-0.0254 3.9878-0.0508 5.969 0 1.1938-0.3048 2.3114-0.889 3.3528-0.0762 0.1524-0.1016 0.3302-0.1524 0.4826 0.127 0.0762 0.1778 0.1016 0.2286 0.1016 1.5494 0.0254 3.0988 0.0254 4.6482 0.0254 0.1524-0.0254 0.2794-0.1016 0.4318-0.1778-0.635-1.1938-1.0922-2.413-1.0922-3.7338v-4.5466c0-0.127-0.0508-0.3302 0.2032-0.4064 0.0508 0.0508 0.1016 0.127 0.1524 0.2032 1.3208 2.1844 2.6162 4.3942 3.9624 6.5786 0.254 0.4572 0.5588 0.9144 0.8636 1.3462 0.127 0.1524 0.2794 0.2032 0.4318 0.2032s0.3302-0.0762 0.4572-0.254c0.254-0.4826 0.508-0.9652 0.7366-1.4478 1.2192-2.667 2.4384-5.3086 3.7338-7.9502 0.2794-0.5842 0.6096-1.1684 1.016-1.905 0.0762 0.3302 0.127 0.4572 0.127 0.6096-0.0254 2.5908 0 5.1816-0.0508 7.7724 0 1.0414-0.254 2.0574-0.7874 2.9972-0.0762 0.1778-0.1016 0.4064-0.1778 0.635 0.2032 0.0254 0.3048 0.0762 0.4318 0.0762h7.2136c0.127 0 0.254-0.0762 0.4318-0.127-0.2032-0.4826-0.381-0.889-0.5588-1.2954zm-16.51-11.252-0.0254 0.0762-0.0254-0.0762zm-0.6858 1.9304h-0.1778c0.127-0.3302 0.4318-0.5842 0.1778-1.0668 0.0762 0.0254 0.1524 0.0254 0.2286 0.0254 0.127 0.1778 0.254 0.381 0.381 0.5588-0.2032 0.1524-0.4064 0.3302-0.6096 0.4826zm0.5588-2.9464c0.0254 0.1524 0.0254 0.3302 0.0508 0.5334-0.1778-0.254-0.2032-0.254-0.0508-0.5334zm-0.3048 1.143c-0.2032 0.0508-0.381 0.0762-0.5334 0.1524-0.127 0.0508-0.2286 0.1778-0.3302 0.2794-0.0762-0.3048-0.127-0.5588 0.2032-0.762 0.0508-0.0254 0.0254-0.2032 0.0508-0.3302 0.0508-0.0508 0.1016-0.1016 0.1524-0.1778 0.381 0.1524 0.1524 0.5842 0.4572 0.8382zm-0.4572-0.8636h-0.1524c0.0508-0.0508 0.1016-0.1016 0.127-0.1524 0 0.0508 0.0254 0.1016 0.0254 0.1524zm-0.2032 0.0254c0 0.0508 0 0.127 0.0254 0.1778h-0.1778v-0.1778zm0.0762-1.1176c-0.0254 0.0254-0.0508 0.1016-0.1016 0.127-0.0254 0.0254-0.0762 0.0254-0.127 0.0254 0.0254-0.0508 0.0508-0.1016 0.0762-0.127 0.0508-0.0508 0.1016-0.0254 0.1524-0.0254zm-0.3302-0.4572c0.0254 0 0.0508-0.0254 0.0762-0.0254 0 0 0.0254 0.0254 0.0254 0.0508-0.0254 0-0.0508 0.0254-0.1016 0.0508zm-0.508-0.2794c0 0.0254 0 0.0508-0.0254 0.0762-0.0254 0-0.0508 0.0254-0.0762 0.0254 0.0254-0.0254 0.0508-0.0762 0.1016-0.1016zm-0.1778 0.1524c0.1524 0.1778 0.2794 0.3556 0.4064 0.5334 0.1016 0.0762 0.2286 0.1524 0.3302 0.2032 0.0508 0.3048 0.1778 0.6096 0.0508 0.9398-0.0762-0.0762-0.1778-0.127-0.1778-0.1778-0.0254-0.4064-0.2794-0.5588-0.635-0.6096-0.3048-0.508-0.3048-0.5334 0.0254-0.889zm-0.0254 0.9398c0.0508 0.1778 0.0762 0.3556 0.127 0.5588-0.381-0.1778-0.1778-0.381-0.127-0.5588zm-0.5588-0.1778c0.0762 0.0254 0.1524 0.0762 0.2032 0.1016-0.0762 0.127-0.1016 0.1778-0.127 0.2286-0.0508-0.0762-0.1016-0.127-0.1524-0.2032 0-0.0254 0.0762-0.127 0.0762-0.127zm0.508 1.3462c0.2286 0.1016 0.4318 0.2286 0.254 0.5334h-0.7112c0.2032-0.2286 0.3302-0.381 0.4572-0.5334zm-0.1778 1.0414-0.0508-0.0508h0.0762zm0.4826 0.6096c0-0.381 0.3048-0.508 0.508-0.7366l0.1524 0.1524c0.2286 0.2794 0.2286 0.2794-0.1016 0.5842h-0.2032zm0.5334 0.8382h0.0762c0-0.1778 0.0762-0.254 0.1778-0.254 0.0508 0 0.1016 0 0.1524 0.0254 0.0508 0.0508 0.1016 0.127 0.1524 0.1778 0 0.0762 0 0.127-0.0254 0.1778-0.1524-0.0508-0.3048-0.1016-0.4572-0.127zm0.5842 0.1524h0.5842c0.0762-0.127 0.1524-0.2286 0.3556-0.508-0.0254 0.3556-0.0254 0.5334-0.0508 0.6858-0.0508 0-0.0762 0-0.127-0.0254-0.1016 0.0762-0.2032 0.1016-0.2794 0.1016-0.1778 0-0.3302-0.127-0.4826-0.254zm0.6096-0.889c0.0508-0.254 0.0508-0.4826 0.1016-0.7366 0.0508-0.1778 0.1524-0.3556 0.3556-0.3556 0.0508 0 0.0762 0.0254 0.127 0.0254-0.0254 0.2286-0.0508 0.4064-0.0762 0.6096-0.1778 0.1524-0.1778 0.4826-0.508 0.4572zm0.5334-0.4318c0.1524-0.0254 0.2794-0.0508 0.4826-0.0762-0.0762 0.3048-0.127 0.5334-0.2032 0.8382-0.254-0.254-0.254-0.508-0.2794-0.762zm0.5842 2.2606c-0.0254-0.0254-0.0762-0.0762-0.127-0.1016 0.0254-0.0254 0.0508-0.0762 0.0762-0.1016 0.0508 0.0508 0.0762 0.0762 0.1016 0.127 0 0.0254-0.0254 0.0508-0.0508 0.0762zm0.2032-1.143c0.0508 0 0.0762 0.0254 0.127 0.0254-0.0254 0.0254-0.0508 0.0762-0.0762 0.1016 0-0.0254-0.0254-0.0762-0.0508-0.127zm1.3208 1.8796c-0.0254 0-0.0508-0.0254-0.1778-0.0762 0.127-0.0508 0.1524-0.0762 0.1778-0.0508 0.127 0 0.2286 0.0254 0.3302 0.0508 0.0254 0 0 0.0762 0 0.0762zm0.4826 1.2446c-0.0254 0-0.0762 0.0254-0.1016 0.0254-0.1016 0-0.1524-0.0762-0.1778-0.1778 0-0.0508 0.0508-0.1524 0.0762-0.1524 0.1016 0.0254 0.2032 0.0762 0.3302 0.127-0.0762 0.1016-0.1016 0.1778-0.127 0.1778zm0.889-0.6858h-0.0254c0.1016 0.0254 0.1778 0.0254 0.2794 0.0254-0.0254 0.0254-0.0762 0.0508-0.127 0.0508-0.0254 0-0.0762-0.0254-0.127-0.0762zm0.3048 0.0254v-0.1524c0.0762 0.0508 0.127 0.1016 0.1778 0.127-0.0508 0-0.1016 0-0.1778 0.0254zm9.6012 1.6256c-0.0508 0-0.0762-0.0254-0.127-0.0762l0.2032 0.0508c-0.0254 0.0254-0.0508 0.0508-0.0762 0.0254zm-1.5748-2.2098h0.6858c0 0.0762 0 0.127 0.0254 0.1778-0.2032 0.1778-0.4064 0.3556-0.5842 0.5334-0.0508-0.2286-0.0762-0.4826-0.127-0.7112zm-0.0254-3.7592h0.3302c-0.0508 0.1016-0.1016 0.2286-0.1778 0.3302-0.0508-0.1016-0.1016-0.2286-0.1524-0.3302zm0.1778 1.8034c-0.127-0.1778-0.2794-0.3556-0.4064-0.5334l0.0254 0.0254c0.0254-0.1016 0.0254-0.2032 0.0508-0.3302 0.1016 0.0762 0.254 0.1016 0.2794 0.1778 0.0254 0.2286 0.0254 0.4572 0.0508 0.6604zm0 0.0762c0.0762 0.0508 0.1524 0.1016 0.2286 0.127-0.0762 0.0762-0.127 0.1778-0.1778 0.1778-0.1524-0.0254-0.2794-0.0762-0.4064-0.1016 0.1016-0.0762 0.2286-0.1524 0.3556-0.2032zm0.762-2.6416c0.1016 0.0508 0.2286 0.127 0.3302 0.1778-0.1016 0.0508-0.2286 0.1016-0.3302 0.1778zm0.4826 1.2954c-0.2794-0.0254-0.5842-0.0254-0.8636-0.0254 0.1778-0.2032 0.2794-0.3302 0.381-0.3302s0.2286 0.127 0.4826 0.3556zm0.2032 0.0762c0 0.0254 0 0.0762-0.0254 0.127 0-0.0254-0.0254-0.0254-0.0508-0.0508s-0.0254-0.0762-0.0508-0.127c0.0508 0.0254 0.0762 0.0254 0.127 0.0508zm-0.381 2.7178c0.0508 0.2032 0.0762 0.3556 0.1016 0.5334-0.2286-0.0508-0.4318-0.0762-0.6096-0.1016 0.1524-0.127 0.3048-0.254 0.508-0.4318zm-0.1016-1.2192h0.2286v0.0508c-0.0762 0-0.1524-0.0254-0.2286-0.0508zm-0.6096-1.0922h0.1016c0.1778 0 0.3556 0.0254 0.508 0.0254 0.2032 0.4064 0.1016 0.7366-0.1016 1.0414-0.1016-0.0254-0.2286-0.0508-0.2794-0.1016-0.1016-0.2286-0.1778-0.4572-0.254-0.6858l0.0254 0.0254c-0.1016-0.1016-0.1524-0.254 0-0.3048zm0.3048 1.6002c-0.0762 0.1016-0.1778 0.2032-0.254 0.3048-0.0762 0.0762-0.127 0.1524-0.2032 0.2286-0.1016-0.0508-0.1778-0.127-0.2794-0.1778 0.0508-0.1016 0.1016-0.254 0.1778-0.2794 0.1778-0.0508 0.381-0.0508 0.5588-0.0762zm-0.3048 2.5146c-0.0508 0.1778-0.1778 0.2794-0.381 0.2794 0.0762-0.1524 0.1778-0.2794 0.381-0.2794zm0.2032 0.5588c0.127-0.127 0.2286-0.254 0.3556-0.4064 0.1016 0.2032 0.2032 0.4064 0.3302 0.6096-0.3048 0.0508-0.635 0.1016-0.9398 0.1524-0.0762 0-0.127-0.0508-0.2032-0.0762 0.1778-0.1016 0.3302-0.1778 0.4572-0.2794zm0.3556-0.4318c-0.1016-0.1524-0.2032-0.2032-0.3302-0.2032-0.0508 0-0.127 0-0.1778 0.0254 0-0.0762 0-0.1778 0.0254-0.2286 0.2794-0.2794 0.2286-0.5588 0.1524-0.889 0.254 0.2286 0.5842 0.2286 0.889 0.2286-0.0762 0.127-0.1524 0.2286-0.254 0.381 0.1778 0.1778 0.3556 0.3302 0.508 0.508-0.0508 0.0508-0.0762 0.127-0.1016 0.127-0.254 0.0254-0.4826 0.0254-0.7112 0.0508zm0.6604-2.1082c0-0.0254 0.0508-0.0762 0.1016-0.1778 0.0762 0.0762 0.1524 0.127 0.1778 0.1778s-0.0762 0.127-0.1016 0.2032c-0.0508-0.0762-0.127-0.127-0.1778-0.2032zm-0.0508-1.4986s0.0254-0.0508 0.0508-0.0508c0.0254 0.0254 0.0762 0.0508 0.1016 0.1016 0 0-0.0254 0.0254-0.0254 0.0508-0.0508-0.0254-0.1016-0.0762-0.127-0.1016zm-0.0254-6.0452c0.0254-0.1016 0.0508-0.1778 0.0762-0.3556 0.254 0.2032 0.381 0.4064 0.3048 0.6858h-0.2032c-0.0762-0.127-0.127-0.2286-0.1778-0.3556zm0.1524 0.4318s0 0.0254-0.0254 0.0508c0.0254-0.0254 0.0254-0.0508 0.0254-0.0508zm0.1778 0.5842c-0.127 0.254-0.3302 0.2794-0.5334 0.2794 0.127-0.1524 0.2794-0.2794 0.5334-0.2794zm-0.762-0.4318c0-0.0508 0.0762-0.0762 0.1524-0.127 0 0.1016 0.0508 0.1778 0.0254 0.254-0.0254 0.0508-0.1016 0.0762-0.1778 0.1016zm-0.6604-0.2032c0.0762 0.127 0.0508 0.254 0 0.3556zm-0.0254-0.0508c-0.2286-0.0762-0.2286-0.2794-0.2286-0.4572 0.3556 0.0254 0.254 0.254 0.2286 0.4572zm-0.4572-1.143c0.0254 0.0508 0.0508 0.1016 0.0508 0.1524l-0.0762-0.0762s0.0254-0.0508 0.0254-0.0762zm-1.8796 1.397v-0.0508zm0.0508 0.7366c0.0762 0.0254 0.127 0.0762 0.2032 0.127-0.0762 0.0254-0.1778 0.0254-0.254 0.0254-0.0254 0-0.0508-0.0254-0.0762-0.0508 0.0508-0.0508 0.1016-0.1016 0.127-0.1016zm0.381 2.3368 0.0508-0.0508v0.0762zm0.4826 0.1524c-0.0254-0.0254-0.0508-0.0254-0.0762-0.0254 0-0.0254 0.0254-0.0508 0.0254-0.0762h0.0508zm0.4572-1.3208h0.1778v0.3556c-0.1524-0.0762-0.1778-0.2286-0.1778-0.3556zm0.1778 0.381h0.2032c-0.0508-0.127-0.127-0.254-0.1778-0.381-0.0508-0.0508-0.0762-0.1016-0.127-0.1016-0.0254 0-0.0762 0.0254-0.1016 0.0762-0.0762 0.1016-0.2286 0.254-0.2286 0.2286-0.127-0.0762-0.2286-0.1016-0.3302-0.1016-0.1778 0-0.3302 0.0762-0.508 0.1778-0.0508 0-0.127-0.0762-0.2286-0.127 0.0254-0.0762 0.0508-0.1778 0.0508-0.254 0.0254-0.254 0.0254-0.3556-0.127-0.3556-0.0508 0-0.1524 0.0254-0.254 0.0508 0.0762-0.254 0.1016-0.3302 0.2794-0.3302 0.0508 0 0.1524 0 0.254 0.0254 0.2032 0.2794 0.3048 0.4064 0.4318 0.4064 0.1016 0 0.2286-0.1016 0.4572-0.254h0.0508-0.0508l-0.0254-0.0254c-0.381-0.2032-0.6096-0.508-0.6858-0.9398 0.1778 0 0.3556-0.0254 0.5334-0.0508-0.4064-0.4572-0.4064-0.4826 0.0762-0.9906 0.127 0.0762 0.2286 0.3048 0.381 0.3048 0.0508 0 0.1016 0 0.1778-0.0508 0.127 0.2032 0.254 0.4064 0.3556 0.6096 0.1524 0 0.2794 0.0254 0.4064 0.0254 0.2794 0.2286 0.3302 0.5588 0.3302 0.9144-0.127 0.127-0.0508 0.254 0 0.381v-0.4064c0.1778-0.1016 0.3556-0.2286 0.5334-0.3556 0.0254 0.3556 0.0254 0.6858 0.0508 1.0922 0.1524-0.127 0.254-0.2032 0.3556-0.3048 0.1016 0.4064-0.0254 0.762-0.2032 1.143l0.0254-0.0254c0.0254 0.2032-0.0254 0.4318 0.1778 0.5842 0 0.254-0.127 0.4064-0.3556 0.508-0.0508-0.1778-0.127-0.381-0.1778-0.5588 0.2032-0.3048-0.0254-0.508-0.2032-0.7112l0.0254-0.0254c-0.2032 0.127-0.2794 0.3302-0.2286 0.5588-0.254 0.1524-0.254 0.1778 0 0.381-0.0508 0.3302-0.3556 0.2794-0.5588 0.381-0.0508-0.127-0.1016-0.2032-0.127-0.3302s-0.0254-0.2794-0.0508-0.4318c0.0762-0.0508 0.0508-0.127-0.0254-0.2032v0.1778c-0.0762-0.0508-0.127-0.127-0.2032-0.1778-0.1524-0.0254-0.3302-0.0508-0.6604-0.127 0.2286-0.1778 0.3556-0.3048 0.4826-0.4064zm0 1.524c0.0508 0.2032 0.1778 0.3048 0.381 0.3556-0.0254 0.2032-0.1016 0.2286-0.2032 0.2286h-0.3048s-0.0508-0.0254-0.0762-0.0508c-0.127-0.254 0.0762-0.381 0.2032-0.5334zm0.1524 3.7338h-0.0508zm0.0254 1.016c0.0254-0.0508 0.0762-0.127 0.127-0.2032 0 0 0.0254 0 0.0508-0.0254 0.0254 0.0254 0.0254 0.0508 0.0254 0.0762-0.0254 0.0762-0.0508 0.1524-0.0508 0.2286zm0.1778 0.6858v0.0508zm0.6604 2.8956c-0.0508-0.0508-0.127-0.0762-0.2032-0.127-0.0254-0.0254-0.0254-0.0508-0.0508-0.0762-0.0508-0.0254-0.127-0.0254-0.2032-0.0254-0.0762-0.254-0.0762-0.2794-0.0508-0.5842 0.0762 0.0762 0.5334 0.4572 0.5334 0.5588 0 0.0762 0 0.1778-0.0254 0.254zm0.254-1.143c-0.0762 0.0254-0.127 0.0508-0.2032 0.0508-0.1778 0-0.2794-0.1524-0.381-0.4826 0.127 0 0.2032 0.2032 0.3302 0.2032 0.0508 0 0.1016-0.0254 0.1778-0.127 0.0254-0.0254 0.1524 0.0254 0.2286 0.0508-0.0508 0.1016-0.0762 0.254-0.1524 0.3048zm0.2286 1.27v-0.0762l0.0762 0.0254zm0.3048 0.635c-0.0254 0-0.1016-0.0508-0.1524-0.0762 0.0508-0.0762 0.0762-0.1524 0.127-0.2032 0.0254 0 0.1016 0.0508 0.1524 0.0762-0.0254 0.0762-0.0762 0.1524-0.127 0.2032zm0.4826-2.1336c-0.127-0.0508-0.254-0.0762-0.381-0.127 0.0254-0.0254 0.0762-0.0508 0.127-0.0762 0.1016-0.0762 0.3048-0.254 0.3302-0.2286 0.2286 0.1778 0 0.2794-0.0762 0.4318zm0.2032-8.0264c-0.0254-0.0508-0.0762-0.1016-0.0762-0.1524s0.0508-0.1016 0.0508-0.1524c0.0508 0.0254 0.0762 0.0508 0.1524 0.1016-0.0508 0.0508-0.1016 0.127-0.127 0.2032z"/>
   <path d="m0.61703 21.281c-0.5715-1.0795-0.74083-2.2437-0.74083-3.429 0.021167-3.0057 0-6.0113 0.021167-9.017 0-0.9525 0.127-1.8838 0.59267-2.7517 0.0635-0.10583 0.10583-0.23283 0.14817-0.35983 0.021167-0.10583 0.021167-0.23283 0.042333-0.40217h-1.8627c-1.4393 0-2.8787-0.021167-4.3392-0.021167h-0.10583c-0.14817 0-0.29633 0.021167-0.33867 0.27517 0.635 1.1853 0.86783 2.5188 0.86783 3.9158-0.021167 2.8363 0 5.6727-0.021167 8.5302 0 1.0583-0.10583 2.0955-0.635 3.048-0.10583 0.1905-0.254 0.40217-0.1905 0.65617 0.084667 0.04233 0.16933 0.08467 0.23283 0.08467h6.1595c0.084667 0 0.14817-0.04233 0.27517-0.08467-0.042333-0.14817-0.042333-0.3175-0.10583-0.4445zm-2.1167-10.012c-0.084667 0-0.16933 0.02117-0.23283 0.02117 0.042333-0.04233 0.0635-0.08467 0.10583-0.08467 0.042333 0 0.084667 0.02117 0.127 0.0635zm-0.3175 1.6722c-0.021167 0-0.021167-0.02117-0.042333-0.04233 0.021167 0.02117 0.021167 0.02117 0.042333 0.04233zm-0.084667-3.1327c-0.021167-0.0635-0.021167-0.127-0.042333-0.1905l0.127 0.127c-0.021167 0.021167-0.0635 0.042333-0.084667 0.0635zm0 2.2225c0 0.0635-0.10583 0.127-0.16933 0.1905h-0.042333 0.042333c-0.021167 0.127-0.10583 0.1905-0.1905 0.1905-0.042333 0-0.084667 0-0.127-0.02117-0.0635-0.10583-0.10583-0.21167-0.14817-0.3175 0.127-0.0635 0.254-0.10583 0.40217-0.16933 0.084667 0 0.23283 0 0.23283 0.127zm-0.33867 2.5823c-0.127-0.127-0.23283-0.254-0.33867-0.381 0.042333-0.127 0.0635-0.23283 0.10583-0.35983 0.16933 0 0.29633 0.02117 0.3175 0.23283 0 0.0635 0.10583 0.127 0.1905 0.1905-0.021167 0.0635-0.021167 0.10583-0.021167 0.16933-0.084667 0.04233-0.16933 0.08467-0.254 0.14817zm0.0635 2.2013-0.021167 0.04233-0.021167-0.04233zm-0.16933-0.48683c0 0.02117-0.042333 0.02117-0.042333 0.04233-0.021167-0.02117-0.042333-0.04233-0.0635-0.04233 0.021167-0.02117 0.0635-0.04233 0.084667-0.0635 0.021167 0.02117 0.021167 0.0635 0.021167 0.0635zm-0.40217-6.0325c-0.084667-0.08467-0.0635-0.16933-0.021167-0.254 0 0.08467 0 0.16933 0.021167 0.254zm-0.021167 0.65617h-0.254c0.042333-0.02117 0.084667-0.04233 0.10583-0.04233 0.0635 0 0.10583 0.02117 0.14817 0.04233zm-0.4445 0.1905c0.084667 0.04233 0.14817 0.08467 0.1905 0.08467 0.084667 0 0.14817-0.08467 0.29633-0.254 0.14817 0.10583 0.29633 0.21167 0.16933 0.4445-0.10583 0.04233-0.23283 0.0635-0.33867 0.0635-0.14817 0-0.29633-0.04233-0.46567-0.08467 0.042333-0.08467 0.10583-0.16933 0.14817-0.254zm0.71967 1.6722c0.0635 0 0.14817 0.127 0.21167 0.21167-0.084667 0.14817-0.1905 0.29633-0.29633 0.46567h-0.16933c-0.0635 0-0.10583-0.02117-0.127-0.04233-0.10583-0.16933-0.1905-0.381-0.29633-0.5715 0.0635-0.04233 0.10583-0.04233 0.14817-0.04233 0.10583 0 0.14817 0.127 0.21167 0.127 0.10583-0.02117 0.21167-0.14817 0.3175-0.14817zm0.021167 1.0372c-0.042333-0.127-0.0635-0.23283-0.10583-0.33867h0.127c0 0.10583 0 0.21167-0.021167 0.33867zm0.1905-0.48683v0.127h-0.10583c0.021167-0.04233 0.0635-0.08467 0.10583-0.127zm0.021167-0.0635v-0.254c0.0635 0.08467 0.084667 0.16933 0 0.254zm-0.99483 1.6722h-0.021167c0.021167-0.04233 0.042333-0.0635 0.042333-0.10583 0 0.04233-0.021167 0.0635-0.021167 0.10583zm0-0.61383c0.10583-0.04233 0.16933-0.0635 0.21167-0.0635 0.042333 0 0.0635 0.04233 0.10583 0.14817-0.10583-0.02117-0.21167-0.0635-0.3175-0.08467zm0.29633 0.97367 0.021167 0.02117c-0.021167 0-0.0635-0.02117-0.084667-0.02117zm-0.127 0.80433c-0.021167-0.02117-0.021167-0.04233-0.042333-0.0635 0.021167 0.02117 0.042333 0.02117 0.042333 0.0635zm0.021167 0.67733h-0.127c0-0.0635 0-0.10583 0.021167-0.14817 0.021167-0.02117 0.0635-0.04233 0.10583-0.0635 0.021167 0.02117 0.042333 0.04233 0.042333 0.0635-0.021167 0.04233-0.021167 0.08467-0.042333 0.14817zm0.4445-2.2013c-0.021167 0.02117-0.042333 0.0635-0.0635 0.08467-0.0635-0.0635-0.127-0.127-0.16933-0.1905 0.0635 0.02117 0.14817 0.0635 0.23283 0.10583zm-0.254-2.7728h0.0635c0.021167 0.02117 0.021167 0.02117 0.021167 0.04233-0.021167-0.02117-0.042333-0.02117-0.084667-0.04233zm-0.42333 2.4977c-0.042333-0.04233-0.0635-0.0635-0.10583-0.08467-0.0635-0.0635-0.127-0.127-0.21167-0.1905 0.254 0 0.254 0 0.3175 0.27517zm0.0635 2.4977v0.127c-0.042333 0-0.084667-0.02117-0.127-0.02117 0.042333-0.04233 0.084667-0.0635 0.127-0.10583zm0.1905 0.127v-0.127c0.381 0.08467 0.40217 0.08467 0.4445 0.4445-0.14817-0.10583-0.29633-0.21167-0.4445-0.3175zm0.91017-6.6252v0.08467-0.08466zm-0.4445-1.0795c-0.021167 0.23283 0.14817 0.3175 0.3175 0.4445l-0.042333 0.021167 0.042333-0.021167c0.0635 0.14817 0.021167 0.254-0.127 0.27517h-0.381l-0.27517-0.27517c0.042333-0.254 0.1905-0.42333 0.46567-0.4445zm-0.52917-1.0583c0.021167 0.021167 0.021167 0.021167 0.042333 0.021167-0.021167 0.021167-0.042333 0.021167-0.084667 0.042333 0.021167-0.021167 0.021167-0.042333 0.042334-0.0635zm0.042333 1.5028v0.27517c-0.042333 0.021167-0.0635 0.021167-0.10583 0.021167-0.10583 0-0.127-0.10583-0.16933-0.23283 0.10583-0.021167 0.1905-0.042333 0.27517-0.0635zm-0.27517 0.93133c-0.127 0.10583-0.1905 0.14817-0.1905 0.14817-0.042333-0.04233-0.084667-0.08467-0.127-0.14817 0.042333-0.02117 0.0635-0.0635 0.10583-0.0635 0.0635 0 0.127 0.04233 0.21167 0.0635zm-0.3175-1.4605c0-0.021167 0.021167-0.042333 0.021167-0.0635 0 0.021167 0 0.021167-0.021167 0.0635zm0.084667 6.1172c-0.042333-0.02117-0.0635-0.0635-0.10583-0.08467 0.021167-0.02117 0.042333-0.0635 0.0635-0.08467 0.042333 0.02117 0.084667 0.04233 0.10583 0.0635-0.021167 0.04233-0.042333 0.10583-0.0635 0.10583zm0.55033 3.5772c-0.021167-0.02117-0.021167-0.04233-0.021167-0.0635 0.021167 0 0.042333-0.02117 0.042333 0 0.021167 0 0.021167 0.02117 0.021167 0.04233zm0.4445-1.4393v-0.10583c0.14817-0.02117 0.29633-0.04233 0.46567-0.08467v0.10583c-0.14817 0.02117-0.29633 0.0635-0.46567 0.08467zm0.635-1.6722c0 0.0635 0.021167 0.127 0.021167 0.21167-0.084667-0.0635-0.084667-0.127-0.021167-0.21167zm0.042333-0.46567c-0.021167-0.02117-0.084667-0.0635-0.084667-0.08467-0.021167-0.04233 0.021167-0.08467 0.042333-0.127 0.042333 0.02117 0.10583 0.0635 0.10583 0.08467 0 0.04233-0.042333 0.08467-0.0635 0.127zm0.29633-1.8203c0-0.08467 0-0.16933-0.021167-0.254 0.1905 0.08467 0.1905 0.08467 0.021167 0.254z"/>
   <path d="m5.7979 9.7029-0.021167-0.021167-0.021167 0.042333zc0-0.021167-0.021167-0.021167-0.021167-0.021167zm8.4032 6.3923c-1.4182 0-2.3707 1.397-2.9845 2.5188-0.21167 0.40217-0.508 0.55033-0.9525 0.55033h-1.5028c-0.61383 0-0.762-0.127-0.78317-0.71967-0.021167-0.16933 0-0.3175 0-0.48683 0-1.3547 0-2.7305-0.021167-4.1063 0-0.508-0.042333-1.0583 0-1.5663 0.084667-0.8255 0.042333-1.6298 0.021167-2.4342-0.042333-1.4393 0.042333-2.8575 0.74083-4.1487 0.042333-0.084667 0.021167-0.1905 0.042333-0.29633-0.10583-0.042333-0.16933-0.084667-0.254-0.084667-2.032-0.021167-4.0852-0.021167-6.1383-0.021167-0.042333 0-0.084667 0.042333-0.1905 0.084667 0.042333 0.14817 0.042333 0.33867 0.10583 0.48683 0.59267 1.143 0.6985 2.3707 0.6985 3.6195v4.4238c0 0.508 0.084667 1.0372 0.084667 1.5663-0.021167 0.762-0.084667 1.524-0.084667 2.286 0 1.2488-0.14817 2.4553-0.74083 3.5772-0.0635 0.10583-0.042333 0.254-0.0635 0.42333 0.61383 0.02117 1.1642 0.04233 1.7357 0.04233 0.46567-0.02117 0.9525-0.10583 1.4182-0.10583 1.397 0.02117 2.7728 0.02117 4.1698 0.08467 0.5715 0.04233 1.1642 0.04233 1.7357 0.04233 0.86783 0 1.7357-0.02117 2.6035-0.02117 0.127 0 0.254-0.04233 0.381-0.0635 0.08467-0.40217 0.04233-0.762 0-1.1218-0.0635-0.33867-0.08467-0.67733-0.10583-1.016-0.04233-1.0372 0.04233-2.0532 0.42333-3.0268 0.10583-0.27517-0.0635-0.46567-0.33867-0.48683zm-7.6623-4.826c-0.10583 0-0.1905-0.02117-0.27517-0.02117 0.042333-0.02117 0.10583-0.04233 0.14817-0.04233 0.042333 0 0.084667 0.02117 0.127 0.0635zm-1.8838 0.5715s0 0.02117-0.021167 0.04233c0-0.02117 0-0.04233 0.021167-0.04233zm0.762-0.84667c0.16933 0.127 0.3175 0.23283 0.1905 0.4445-0.1905 0-0.40217 0.02117-0.71967 0.04233 0.23283-0.21167 0.381-0.33867 0.52917-0.48683zm0.021167-0.9525c0.021167 0.127 0.14817 0.27517 0 0.4445-0.14817-0.16933-0.042333-0.3175 0-0.4445zm0.508 3.1962c-0.021167 0.16933-0.042333 0.3175-0.21167 0.3175-0.042333 0-0.0635-0.02117-0.10583-0.02117 0.10583-0.10583 0.21167-0.1905 0.3175-0.29633zm-0.61383-0.21167c0.29633 0.0635 0.21167 0.3175 0.254 0.508-0.381-0.127-0.381-0.127-0.254-0.508zm-0.0635-1.2065-0.042333 0.04233-0.021167-0.04233zm0.042333 1.1853c-0.27517-0.02117-0.29633-0.04233-0.29633-0.27517 0.042333 0 0.0635-0.02117 0.10583-0.02117 0.14817 0 0.16933 0.127 0.1905 0.29633zm-0.127 1.3335c0.021167-0.02117 0.0635-0.02117 0.084667-0.02117 0.0635 0 0.127 0.08467 0.1905 0.14817 0 0.0635 0 0.14817-0.021167 0.254-0.127-0.0635-0.23283-0.10583-0.35983-0.16933 0.042333-0.0635 0.042333-0.16933 0.10583-0.21167zm0.23283 1.2065c-0.021167 0-0.0635 0.02117-0.0635 0.02117-0.021167-0.04233-0.042333-0.0635-0.042333-0.10583 0.021167 0 0.021167 0 0.042333-0.02117 0.021167 0.04233 0.042333 0.0635 0.0635 0.10583zm-0.10583 1.905c-0.10583-0.04233-0.21167-0.08467-0.3175-0.127 0.10583 0 0.21167-0.02117 0.3175-0.02117zm0.021167-0.1905c-0.0635-0.08467-0.10583-0.16933-0.16933-0.27517 0.0635 0 0.14817 0 0.1905 0.02117 0.0635 0.02117 0.10583 0.10583 0.14817 0.14817-0.0635 0.04233-0.127 0.08467-0.16933 0.10583zm0.14817-0.93133 0.021167 0.02117c0.0635-0.02117 0.127-0.04233 0.1905-0.04233 0.021167 0 0.042333 0 0.0635 0.02117 0.127 0.08467 0.0635 0.21167 0.021167 0.3175-0.10583-0.10583-0.21167-0.21167-0.29633-0.3175zm0.29633-0.84667c0.021167-0.04233 0.021167-0.08467 0.042333-0.127 0-0.02117 0.021167-0.04233 0.021167-0.0635 0.021167 0.04233 0.042333 0.08467 0.042333 0.10583-0.021167 0.02117-0.0635 0.04233-0.10583 0.08467zm-0.021167-0.93133c-0.084667-0.02117-0.16933-0.0635-0.254-0.08467 0.0635-0.21167 0.14817-0.40217 0.381-0.48683 0.0635 0.16933-0.021167 0.381 0.1905 0.46567-0.10583 0.04233-0.21167 0.0635-0.3175 0.10583zm0.21167-1.3758v-0.14817c0.0635 0 0.10583 0 0.14817 0.02117-0.042333 0.04233-0.084667 0.08467-0.14817 0.127zm0.14817-0.80433h-0.46566c0.0635-0.127 0.10583-0.27517 0.1905-0.381 0.0635-0.0635 0.127-0.08467 0.1905-0.08467s0.14817 0.02117 0.21167 0.10583c0.14817 0.16933-0.021167 0.254-0.127 0.35983zm0.084667 0.65617h-0.042333c0-0.02117 0.021167-0.0635 0.021167-0.08467 0.021167 0.02117 0.021167 0.0635 0.021167 0.08467zm-0.084667-2.3707h0.14817c0 0.0635 0 0.10583-0.021167 0.16933-0.042333-0.02117-0.084667-0.02117-0.127-0.02117v-0.14817zm0 0.67733c0.042333-0.02117 0.0635-0.04233 0.10583-0.0635 0 0.04233 0 0.08467-0.021167 0.10583 0 0.02117-0.0635 0.02117-0.084667 0.02117v-0.0635zm0.14817-1.6087c-0.021167 0.021167-0.021167 0.0635-0.042333 0.084667-0.042333 0.021167-0.0635 0.021167-0.10583 0.021167l0.084667-0.084667s0.042333-0.021167 0.0635-0.021167zm-0.1905-0.40217s0.021167 0.021167 0.042333 0.021167c0 0.021167-0.021167 0.042333-0.021167 0.0635-0.021167-0.021167-0.042333-0.021167-0.0635-0.021167 0.021167-0.021167 0.021167-0.042333 0.042333-0.0635zm-0.46567-0.21167c0 0.021167 0 0.042333-0.021167 0.0635-0.021167 0-0.042333 0.021167-0.0635 0.021167zm-0.127 0.14817c0.10583 0.127 0.21167 0.27517 0.3175 0.42333 0.084667 0.0635 0.1905 0.127 0.27517 0.16933 0 0.254 0.021167 0.508 0.021167 0.762-0.042333-0.0635-0.10583-0.10583-0.10583-0.14817-0.021167-0.35983-0.27517-0.4445-0.55033-0.508-0.021167-0.021167-0.042333-0.0635-0.0635-0.10583-0.16933-0.3175-0.1905-0.3175 0.10583-0.59267zm-0.42333 0.93133c-0.127-0.127-0.23283-0.23283-0.33867-0.35983 0.084667 0 0.127-0.021167 0.1905-0.021167 0.127 0 0.127 0.084667 0.14817 0.381zm-0.5715 5.08c-0.021167 0-0.0635-0.0635-0.0635-0.10583 0.0635-0.0635 0.0635-0.0635 0.14817-0.0635 0.042333 0 0.084667 0 0.10583 0.02117-0.021167 0.04233-0.021167 0.08467-0.0635 0.10583-0.021167 0.04233-0.084667 0.0635-0.127 0.04233zm0.16933 4.0852c0-0.02117-0.021167-0.04233-0.042333-0.0635 0.021167-0.02117 0.042333-0.02117 0.0635-0.02117l0.021167 0.04233c0 0.02117-0.021167 0.04233-0.042333 0.04233zm0.10583-5.08c-0.10583-0.04233-0.21167-0.08467-0.3175-0.127 0.10583 0 0.21167 0.02117 0.33867 0.02117-0.021167 0.02117-0.021167 0.0635-0.021167 0.10583zm0.10583 2.54c0.042333-0.0635 0.10583-0.10583 0.14817-0.14817 0.021167 0 0.084667 0.0635 0.10583 0.08467 0.021167 0.0635 0.021167 0.14817 0.021167 0.21167-0.0635 0-0.14817 0-0.21167-0.04233-0.021167 0-0.0635-0.08467-0.0635-0.10583zm0.1905 2.0743 0.021167-0.04233 0.021167 0.04233zm0.48683-1.3123c-0.0635-0.04233-0.127-0.0635-0.16933-0.10583h0.21167c-0.021167 0.04233-0.021167 0.0635-0.042333 0.10583zm0.1905 1.1218c-0.021167-0.02117-0.021167-0.04233-0.042333-0.0635 0.021167 0 0.0635-0.02117 0.0635-0.02117 0.021167 0.04233 0.021167 0.0635 0.042333 0.10583-0.021167-0.02117-0.042333-0.02117-0.0635-0.02117zm0.3175-1.3123c-0.021167-0.02117-0.10583-0.02117-0.10583-0.02117 0-0.04233 0-0.08467 0.021167-0.14817 0.021167 0.04233 0.0635 0.0635 0.10583 0.08467 0 0.02117 0 0.0635-0.021167 0.08467zm0.35983-2.2648c-0.042333 0.10583-0.084667 0.21167-0.14817 0.3175-0.16933-0.1905-0.16933-0.21167 0.14817-0.3175zm-0.1905 3.7253c0-0.02117 0.021167-0.04233 0.021167-0.0635 0.021167 0.04233 0.042333 0.0635 0.0635 0.10583-0.042333-0.02117-0.0635-0.02117-0.084667-0.04233zm0.042333-0.93133 0.021167-0.04233 0.042333 0.04233z"/>
   <path d="m19.565 9.7029-0.02117-0.021167-0.02117 0.042333zc0-0.021167-0.02117-0.021167-0.02117-0.021167zm8.4032 6.3923c-1.4182 0-2.3707 1.397-2.9845 2.5188-0.21167 0.40217-0.508 0.55033-0.9525 0.55033h-1.5028c-0.61383 0-0.762-0.127-0.78317-0.71967-0.02117-0.16933 0-0.3175 0-0.48683 0-1.3547 0-2.7305-0.02117-4.1063 0-0.508-0.04233-1.0583 0-1.5663 0.08467-0.8255 0.04233-1.6298 0.02117-2.4342-0.04233-1.4393 0.04233-2.8575 0.74083-4.1487 0.04233-0.084667 0.02117-0.1905 0.04233-0.29633-0.10583-0.042333-0.16933-0.084667-0.254-0.084667-2.032-0.021167-4.0852-0.021167-6.1383-0.021167-0.04233 0-0.08467 0.042333-0.1905 0.084667 0.04233 0.14817 0.04233 0.33867 0.10583 0.48683 0.59267 1.143 0.6985 2.3707 0.6985 3.6195v4.4238c0 0.508 0.08467 1.0372 0.08467 1.5663-0.02117 0.762-0.08467 1.524-0.08467 2.286 0 1.2488-0.14817 2.4553-0.74083 3.5772-0.0635 0.10583-0.04233 0.254-0.0635 0.42333 0.61383 0.02117 1.1642 0.04233 1.7357 0.04233 0.46567-0.02117 0.9525-0.10583 1.4182-0.10583 1.397 0.02117 2.7728 0.02117 4.1698 0.08467 0.5715 0.04233 1.1642 0.04233 1.7357 0.04233 0.86783 0 1.7357-0.02117 2.6035-0.02117 0.127 0 0.254-0.04233 0.381-0.0635 0.08467-0.40217 0.04233-0.762 0-1.1218-0.0635-0.33867-0.08467-0.67733-0.10583-1.016-0.04233-1.0372 0.04233-2.0532 0.42333-3.0268 0.10583-0.27517-0.0635-0.46567-0.33867-0.48683zm-7.6623-4.826c-0.10583 0-0.1905-0.02117-0.27517-0.02117 0.04233-0.02117 0.10583-0.04233 0.14817-0.04233 0.04233 0 0.08467 0.02117 0.127 0.0635zm-1.8838 0.5715s0 0.02117-0.02117 0.04233c0-0.02117 0-0.04233 0.02117-0.04233zm0.762-0.84667c0.16933 0.127 0.3175 0.23283 0.1905 0.4445-0.1905 0-0.40217 0.02117-0.71967 0.04233 0.23283-0.21167 0.381-0.33867 0.52917-0.48683zm0.02117-0.9525c0.02117 0.127 0.14817 0.27517 0 0.4445-0.14817-0.16933-0.04233-0.3175 0-0.4445zm0.508 3.1962c-0.02117 0.16933-0.04233 0.3175-0.21167 0.3175-0.04233 0-0.0635-0.02117-0.10583-0.02117 0.10583-0.10583 0.21167-0.1905 0.3175-0.29633zm-0.61383-0.21167c0.29633 0.0635 0.21167 0.3175 0.254 0.508-0.381-0.127-0.381-0.127-0.254-0.508zm-0.0635-1.2065-0.04233 0.04233-0.02117-0.04233zm0.04233 1.1853c-0.27517-0.02117-0.29633-0.04233-0.29633-0.27517 0.04233 0 0.0635-0.02117 0.10583-0.02117 0.14817 0 0.16933 0.127 0.1905 0.29633zm-0.127 1.3335c0.02117-0.02117 0.0635-0.02117 0.08467-0.02117 0.0635 0 0.127 0.08467 0.1905 0.14817 0 0.0635 0 0.14817-0.02117 0.254-0.127-0.0635-0.23283-0.10583-0.35983-0.16933 0.04233-0.0635 0.04233-0.16933 0.10583-0.21167zm0.23283 1.2065c-0.02117 0-0.0635 0.02117-0.0635 0.02117-0.02117-0.04233-0.04233-0.0635-0.04233-0.10583 0.02117 0 0.02117 0 0.04233-0.02117 0.02117 0.04233 0.04233 0.0635 0.0635 0.10583zm-0.10583 1.905c-0.10583-0.04233-0.21167-0.08467-0.3175-0.127 0.10583 0 0.21167-0.02117 0.3175-0.02117zm0.02117-0.1905c-0.0635-0.08467-0.10583-0.16933-0.16933-0.27517 0.0635 0 0.14817 0 0.1905 0.02117 0.0635 0.02117 0.10583 0.10583 0.14817 0.14817-0.0635 0.04233-0.127 0.08467-0.16933 0.10583zm0.14817-0.93133 0.02117 0.02117c0.0635-0.02117 0.127-0.04233 0.1905-0.04233 0.02117 0 0.04233 0 0.0635 0.02117 0.127 0.08467 0.0635 0.21167 0.02117 0.3175-0.10583-0.10583-0.21167-0.21167-0.29633-0.3175zm0.29633-0.84667c0.02117-0.04233 0.02117-0.08467 0.04233-0.127 0-0.02117 0.02117-0.04233 0.02117-0.0635 0.02117 0.04233 0.04233 0.08467 0.04233 0.10583-0.02117 0.02117-0.0635 0.04233-0.10583 0.08467zm-0.02117-0.93133c-0.08467-0.02117-0.16933-0.0635-0.254-0.08467 0.0635-0.21167 0.14817-0.40217 0.381-0.48683 0.0635 0.16933-0.02117 0.381 0.1905 0.46567-0.10583 0.04233-0.21167 0.0635-0.3175 0.10583zm0.21167-1.3758v-0.14817c0.0635 0 0.10583 0 0.14817 0.02117-0.04233 0.04233-0.08467 0.08467-0.14817 0.127zm0.14817-0.80433h-0.46566c0.0635-0.127 0.10583-0.27517 0.1905-0.381 0.0635-0.0635 0.127-0.08467 0.1905-0.08467s0.14817 0.02117 0.21167 0.10583c0.14817 0.16933-0.02117 0.254-0.127 0.35983zm0.08467 0.65617h-0.04233c0-0.02117 0.02117-0.0635 0.02117-0.08467 0.02117 0.02117 0.02117 0.0635 0.02117 0.08467zm-0.08467-2.3707h0.14817c0 0.0635 0 0.10583-0.02117 0.16933-0.04233-0.02117-0.08467-0.02117-0.127-0.02117v-0.14817zm0 0.67733c0.04233-0.02117 0.0635-0.04233 0.10583-0.0635 0 0.04233 0 0.08467-0.02117 0.10583 0 0.02117-0.0635 0.02117-0.08467 0.02117v-0.0635zm0.14817-1.6087c-0.02117 0.021167-0.02117 0.0635-0.04233 0.084667-0.04233 0.021167-0.0635 0.021167-0.10583 0.021167 0.02117-0.021167 0.04233-0.042333 0.08467-0.084667 0 0 0.04233-0.021167 0.0635-0.021167zm-0.1905-0.40217s0.02117 0.021167 0.04233 0.021167c0 0.021167-0.02117 0.042333-0.02117 0.0635-0.02117-0.021167-0.04233-0.021167-0.0635-0.021167 0.02117-0.021167 0.02117-0.042333 0.04233-0.0635zm-0.46567-0.21167c0 0.021167 0 0.042333-0.02117 0.0635-0.02117 0-0.04233 0.021167-0.0635 0.021167 0.02117-0.021167 0.0635-0.0635 0.08467-0.084667zm-0.127 0.14817c0.10583 0.127 0.21167 0.27517 0.3175 0.42333 0.08467 0.0635 0.1905 0.127 0.27517 0.16933 0 0.254 0.02117 0.508 0.02117 0.762-0.04233-0.0635-0.10583-0.10583-0.10583-0.14817-0.02117-0.35983-0.27517-0.4445-0.55033-0.508-0.02117-0.021167-0.04233-0.0635-0.0635-0.10583-0.16933-0.3175-0.1905-0.3175 0.10583-0.59267zm-0.42333 0.93133c-0.127-0.127-0.23283-0.23283-0.33867-0.35983 0.08467 0 0.127-0.021167 0.1905-0.021167 0.127 0 0.127 0.084667 0.14817 0.381zm-0.5715 5.08c-0.02117 0-0.0635-0.0635-0.0635-0.10583 0.0635-0.0635 0.0635-0.0635 0.14817-0.0635 0.04233 0 0.08467 0 0.10583 0.02117-0.02117 0.04233-0.02117 0.08467-0.0635 0.10583-0.02117 0.04233-0.08467 0.0635-0.127 0.04233zm0.16933 4.0852c0-0.02117-0.02117-0.04233-0.04233-0.0635 0.02117-0.02117 0.04233-0.02117 0.0635-0.02117 0 0 0.02117 0.04233 0.02117 0.04233 0 0.02117-0.02117 0.04233-0.04233 0.04233zm0.10583-5.08c-0.10583-0.04233-0.21167-0.08467-0.3175-0.127 0.10583 0 0.21167 0.02117 0.33867 0.02117-0.02117 0.02117-0.02117 0.0635-0.02117 0.10583zm0.10583 2.54c0.04233-0.0635 0.10583-0.10583 0.14817-0.14817 0.02117 0 0.08467 0.0635 0.10583 0.08467 0.02117 0.0635 0.02117 0.14817 0.02117 0.21167-0.0635 0-0.14817 0-0.21167-0.04233-0.02117 0-0.0635-0.08467-0.0635-0.10583zm0.1905 2.0743 0.02117-0.04233 0.02117 0.04233zm0.48683-1.3123c-0.0635-0.04233-0.127-0.0635-0.16933-0.10583h0.21167c-0.02117 0.04233-0.02117 0.0635-0.04233 0.10583zm0.1905 1.1218c-0.02117-0.02117-0.02117-0.04233-0.04233-0.0635 0.02117 0 0.0635-0.02117 0.0635-0.02117 0.02117 0.04233 0.02117 0.0635 0.04233 0.10583-0.02117-0.02117-0.04233-0.02117-0.0635-0.02117zm0.3175-1.3123c-0.02117-0.02117-0.10583-0.02117-0.10583-0.02117 0-0.04233 0-0.08467 0.02117-0.14817 0.02117 0.04233 0.0635 0.0635 0.10583 0.08467 0 0.02117 0 0.0635-0.02117 0.08467zm0.35983-2.2648c-0.04233 0.10583-0.08467 0.21167-0.14817 0.3175-0.16933-0.1905-0.16933-0.21167 0.14817-0.3175zm-0.1905 3.7253c0-0.02117 0.02117-0.04233 0.02117-0.0635 0.02117 0.04233 0.04233 0.0635 0.0635 0.10583-0.04233-0.02117-0.0635-0.02117-0.08467-0.04233zm0.04233-0.93133 0.02117-0.04233 0.04233 0.04233z"/>
   <path d="m42.412 15.989c-0.381-1.0795-1.0372-1.9473-2.0108-2.5612-0.762-0.48683-1.5452-0.91017-2.3072-1.397-0.74083-0.4445-1.4817-0.91017-2.1802-1.397-0.29633-0.21167-0.5715-0.48683-0.78317-0.78317-0.4445-0.65617-0.29633-1.524 0.29633-1.9897 0.48683-0.381 1.016-0.59267 1.5875-0.59267 0.97367 0 1.9262 0.5715 2.413 1.397 0.29633 0.46567 0.59267 0.93133 0.9525 1.3547 0.42333 0.52917 0.99483 0.84667 1.6722 0.9525h0.127c0.35983 0 0.508-0.21167 0.40217-0.59267-0.4445-1.5452-0.5715-3.1115-0.27517-4.6778 0.02117-0.127-0.02117-0.23283-0.04233-0.33867-0.08467-0.021167-0.10583-0.042333-0.127-0.021167-0.08467 0.021167-0.14817 0.042333-0.21167 0.084667-0.3175 0.27517-0.635 0.381-0.99483 0.381-0.254 0-0.52917-0.0635-0.80433-0.14817-0.14817-0.042333-0.27517-0.127-0.4445-0.16933-0.8255-0.23283-1.6087-0.61383-2.4977-0.67733-0.52917-0.021167-1.0372-0.0635-1.5452-0.0635-0.23283 0-0.4445 0-0.65617 0.021167-1.4605 0.0635-2.7093 0.635-3.7888 1.5875-1.8203 1.5875-2.0955 4.5085-0.16933 6.2865 1.0795 1.016 2.1802 1.7568 3.4713 2.4342 0.5715 0.33867 1.143 0.67733 1.6933 1.0583 0.35983 0.254 0.6985 0.52917 0.97367 0.889 0.48683 0.59267 0.42333 1.524-0.127 2.0108-0.48683 0.46567-0.9525 0.67733-1.6298 0.67733-0.99483-0.04233-1.8415-0.42333-2.413-1.2912-0.254-0.35983-0.46567-0.74083-0.71967-1.1218-0.33867-0.55033-1.3335-1.3123-2.032-1.3123-0.14817 0-0.3175 0.04233-0.48683 0.16933-0.04233 0.61383 0.29633 1.1642 0.33867 1.778 0.02117 0.61383 0.10583 1.2488 0.10583 1.8838-0.02117 0.59267-0.08467 1.1853-0.14817 1.8838 0.1905-0.08467 0.27517-0.10583 0.33867-0.14817 0.29633-0.27517 0.65617-0.35983 1.0372-0.35983 0.10583 0 0.1905 0.02117 0.29633 0.02117 0.21167 0.02117 0.40217 0.08467 0.59267 0.16933 1.2912 0.48683 2.6035 0.8255 3.9793 0.8255 0.21167 0 0.4445 0 0.65617-0.02117h0.0635c0.99483 0 1.5028-0.0635 2.4553-0.508 0.93133-0.40217 1.7568-0.9525 2.3495-1.7992 0.80433-1.2065 1.0583-2.4977 0.59267-3.8947zm-3.3443-1.2065c0 0.0635 0 0.127 0.02117 0.1905-0.04233-0.0635-0.0635-0.10583-0.10583-0.14817 0.02117-0.02117 0.0635-0.02117 0.08467-0.04233zm-0.55033-0.10583h-0.04233c0-0.02117 0-0.04233-0.02117-0.04233 0.02117 0 0.04233 0.02117 0.0635 0.04233zm-0.14817 0.635c-0.08467-0.02117-0.14817-0.04233-0.16933-0.14817 0.0635 0.0635 0.10583 0.10583 0.16933 0.14817zm-1.0795-1.7357c0.0635-0.02117 0.16933-0.08467 0.21167-0.0635 0.08467 0.08467 0.0635 0.21167-0.04233 0.29633-0.10583 0.0635-0.21167 0.14817-0.3175 0.21167-0.04233-0.08467-0.08467-0.1905-0.14817-0.27517 0.04233-0.16933 0.0635-0.254 0.10583-0.254s0.10583 0.04233 0.1905 0.08467zm-0.42333-0.86783c-0.0635-0.0635-0.127-0.10583-0.1905-0.14817 0.08467-0.08467 0.1905-0.16933 0.29633-0.23283 0.04233 0.14817 0 0.27517-0.10583 0.381zm0 0.04233c0.08467 0.10583 0.14817 0.23283 0.21167 0.33867-0.254-0.02117-0.27517-0.04233-0.21167-0.33867zm-1.5663-0.91017c0.02117 0.04233 0.04233 0.10583 0.0635 0.14817-0.04233 0.02117-0.08467 0.0635-0.10583 0.04233-0.04233 0-0.0635-0.0635-0.0635-0.10583 0-0.02117 0.04233-0.04233 0.10583-0.08467zm0.10583 0.8255c0.02117-0.23283 0.254-0.23283 0.381-0.33867 0.02117-0.127 0.0635-0.16933 0.14817-0.16933 0.04233 0 0.08467 0 0.14817 0.02117 0.02117-0.02117 0.04233-0.02117 0.04233-0.02117 0.02117 0.02117 0.04233 0.0635 0.0635 0.08467 0.02117 0.04233 0.02117 0.08467 0.04233 0.10583h-0.10583c-0.08467 0.02117-0.14817 0.02117-0.23283 0.04233 0.02117 0.08467 0 0.21167 0.04233 0.254 0.14817 0.08467 0.127 0.21167 0.0635 0.35983-0.23283 0.02117-0.48683 0.02117-0.71967 0.04233-0.04233-0.14817-0.21167-0.33867 0.127-0.381zm-0.5715-0.99483h-0.04233c-0.0635 0-0.08467-0.04233-0.10583-0.10583 0.04233 0.04233 0.10583 0.08467 0.14817 0.10583zm-0.65617 0.04233c0.02117 0 0.02117 0.02117 0.04233 0.04233-0.02117 0.02117-0.02117 0.04233-0.04233 0.04233-0.02117-0.02117-0.02117-0.04233-0.04233-0.08467 0.02117 0 0.04233-0.02117 0.04233 0zm-0.1905-1.0372zm-2.032 0.42333h-0.0635c0-0.02117 0.02117-0.02117 0.02117-0.04233h0.04233zm0.65617-1.5028-0.40217-0.40217c0.27517 0.021167 0.40217 0.084667 0.40217 0.40217zm0.86783 2.5612c-0.04233 0-0.10583-0.04233-0.14817-0.0635-0.04233 0.02117-0.10583 0.04233-0.16933 0.0635 0.02117-0.04233 0.04233-0.08467 0.0635-0.10583 0.02117-0.04233 0.0635-0.08467 0.08467-0.127v-0.46567c0.254 0.127 0.23283 0.3175 0.10583 0.55033 0.04233 0 0.08467 0.02117 0.127 0.04233 0.02117 0 0.02117 0.02117 0.04233 0.04233-0.04233 0.02117-0.08467 0.0635-0.10583 0.0635zm-0.16933-0.74083c-0.02117-0.02117-0.0635-0.02117-0.08467-0.04233 0.10583-0.10583 0.21167-0.21167 0.3175-0.29633 0.02117 0.02117 0.04233 0.04233 0.0635 0.04233l-0.29633 0.29633zm0.4445 0.14817c-0.02117-0.02117-0.02117-0.04233-0.04233-0.08467 0.04233 0.04233 0.0635 0.0635 0.08467 0.10583 0 0-0.04233 0-0.04233-0.02117zm0.14817 0.78317 0.04233 0.04233c0-0.02117-0.02117-0.02117-0.04233-0.04233zm0.508 0.84667c-0.02117 0.04233-0.0635 0.04233-0.10583 0.0635 0-0.04233-0.02117-0.08467-0.02117-0.10583 0-0.02117 0.0635-0.04233 0.08467-0.0635 0.02117 0.04233 0.04233 0.08467 0.04233 0.10583zm0.0635-0.762c-0.02117-0.04233-0.02117-0.08467-0.02117-0.127-0.0635-0.04233-0.14817-0.08467-0.21167-0.14817 0.08467 0.02117 0.1905 0.02117 0.27517 0.02117 0.04233 0.04233 0.08467 0.0635 0.127 0.08467 0.0635 0.14817 0.127 0.29633 0.21167 0.4445h-0.14817c-0.16933 0-0.1905-0.04233-0.23283-0.27517zm0.23283 0.61383zm0.46567 0.71967c-0.02117-0.08467-0.02117-0.14817-0.02117-0.23283v-0.127c0.14817 0.1905 0.14817 0.1905 0.02117 0.35983zm0-0.40217c0.02117-0.10583 0.0635-0.1905 0.10583-0.29633 0.08467 0.14817 0.08467 0.16933-0.10583 0.29633zm1.2912 0.93133c0-0.02117 0.02117-0.02117 0.02117-0.02117s-0.02117 0-0.02117 0.02117zm0.254-0.46567c-0.0635-0.04233-0.10583-0.16933-0.21167-0.16933-0.02117 0-0.0635 0.02117-0.10583 0.0635 0.02117 0.16933 0.04233 0.33867 0.08467 0.508-0.46567-0.27517-0.59267-0.67733-0.46567-1.2277 0.10583-0.04233 0.21167-0.08467 0.33867-0.14817 0.02117 0.10583 0.02117 0.1905 0.04233 0.27517 0.02117 0 0.04233-0.02117 0.0635-0.02117 0.10583 0 0.14817 0.08467 0.16933 0.21167 0.21167 0.04233 0.21167 0.29633 0.35983 0.42333-0.0635 0.0635-0.10583 0.10583-0.1905 0.10583-0.02117 0-0.04233 0-0.08467-0.02117zm0.889 1.6722c-0.04233 0.02117-0.08467 0.04233-0.10583 0.04233 0-0.02117-0.02117-0.0635-0.02117-0.10583h0.10583c0 0.02117 0.02117 0.0635 0.02117 0.0635zm0.16933-0.74083c-0.02117 0.127-0.04233 0.21167-0.16933 0.23283-0.0635 0.02117-0.14817 0.02117-0.21167 0.04233-0.08467-0.02117-0.16933-0.02117-0.254-0.04233 0.10583-0.23283 0.21167-0.46567 0.4445-0.635 0.1905 0.0635 0.21167 0.21167 0.1905 0.40217zm0.3175-0.93133c0.0635-0.04233 0.10583-0.10583 0.14817-0.14817 0 0.10583-0.04233 0.16933-0.14817 0.14817zm0.14817 1.7568c0.0635 0.04233 0.127 0.10583 0.16933 0.14817-0.04233 0.04233-0.10583 0.10583-0.16933 0.14817-0.08467-0.10583-0.14817-0.1905 0-0.29633zm0.1905 0.127c0-0.10583-0.02117-0.23283-0.02117-0.35983 0.0635-0.08467 0.127-0.1905 0.1905-0.27517 0.04233-0.04233 0.0635-0.0635 0.10583-0.0635 0.0635 0 0.10583 0.0635 0.14817 0.127 0 0.1905-0.04233 0.381 0.10583 0.508-0.08467 0.08467-0.16933 0.127-0.27517 0.127-0.08467 0-0.16933-0.02117-0.254-0.0635zm0.59267 0.84667s-0.04233 0.02117-0.0635 0.02117c0-0.04233 0-0.08467 0.02117-0.127 0 0 0.02117-0.02117 0.04233-0.02117zm0.23283 0.8255 0.02117-0.04233 0.02117 0.04233zm0.08467-0.71967c0-0.02117-0.02117-0.02117-0.02117-0.04233 0 0 0.02117-0.02117 0.04233-0.02117 0 0.02117-0.02117 0.04233-0.02117 0.0635zm0.1905-0.80433-0.0635-0.0635h0.10583c-0.02117 0.02117-0.02117 0.04233-0.04233 0.0635zm0.59267 2.0108-0.0635-0.0635h0.0635z"/>
   <path d="m-80.931 30.728c0.34713-0.0085 0.69427-0.0085 1.0499-0.01693 0.41487-0.01693 0.84667-0.0254 1.27-0.0254 0.4826 0 0.95673 0.01693 1.4647 0.0508 0.06773-0.0254 0.09313-0.0762 0.0762-0.11853-0.0762-0.3302-0.11007-0.71967-0.1016-1.0922 0-0.04233-0.0254-0.0762-0.06773-0.08467-0.0254-0.0085-0.04233-0.0085-0.06773-0.0085-0.44027 0.11853-0.92287 0.14393-1.4139 0.14393-0.2794 0-0.56727-0.0085-0.84667-0.01693l-0.13547-0.0085c-0.06773 0-0.11853-0.0508-0.11853-0.11853 0-0.24553 0-0.4826 0.0085-0.72813l0.0085-0.4064c0-0.05927 0.0508-0.11007 0.11007-0.11853h0.49107c0.38947 0 0.762 0.01693 1.1261 0.11853 0.04233 0 0.08467-0.03387 0.09313-0.0762 0.1016-0.33867 0.14393-0.6858 0.16933-0.9906 0.0085-0.0254-0.0085-0.04233-0.0254-0.06773-0.01693-0.01693-0.0508-0.0254-0.05927-0.0254h-0.32173c-0.16933 0-0.33867 0-0.49953-0.0085h-0.49953c-0.16087 0-0.32173 0-0.4826 0.0085-0.06773 0-0.127-0.04233-0.127-0.11853l0.0254-0.95673c0-0.05927 0.0508-0.11007 0.11853-0.11853h0.21167c0.1778 0 0.3556-0.0085 0.52493-0.0085 0.55033 0 1.0837 0.03387 1.6341 0.1778 0.04233 0 0.0762 0 0.1016-0.04233l0.01693-0.06773c0.01693-0.34713 0.0762-0.6858 0.18627-1.0329 0.0085-0.01693 0.0085-0.0508-0.0085-0.0762-0.01693-0.03387-0.0762-0.0508-0.11853-0.0508h-0.2032c-0.70273 0.01693-1.4224 0.0254-2.1421 0.0254-0.47413 0-0.94827 0-1.4139-0.01693-0.03387 0-0.0508 0.0085-0.06773 0.0254-0.03387 0.0254-0.04233 0.0508-0.04233 0.0762 0.0254 0.5842 0.01693 1.1684 0.0085 1.7357-0.01693 0.8636-0.01693 1.7272-0.01693 2.5908-0.0085 0.44027-0.0085 0.889-0.0254 1.3293 0 0.03387 0.0085 0.0508 0.0254 0.06773 0.0085 0.01693 0.0254 0.04233 0.08467 0.0508z"/>
   <path d="m-72.463 27.9c-0.5334-0.46567-1.0668-0.5588-1.4986-0.635-0.34713-0.05927-0.64347-0.11007-0.84667-0.32173-0.16933-0.16933-0.22013-0.37253-0.14393-0.5842 0.09313-0.254 0.37253-0.47413 0.65193-0.508 0.04233 0 0.09313-0.0085 0.13547-0.0085 0.4572 0 0.97367 0.24553 1.4224 0.6858 0.01693 0.0254 0.04233 0.03387 0.08467 0.03387 0.0085 0 0.0085 0 0.1016-0.08467 0.0085-0.4064 0.04233-0.7874 0.08467-1.1684 0.0085-0.04233-0.0085-0.0762-0.0508-0.08467-0.4826-0.24553-1.0668-0.4064-1.6341-0.4064-0.9906 0-1.8796 0.54187-1.9558 1.6002-0.0254 0.4826 0.14393 0.95673 0.4826 1.2954 0.28787 0.28787 0.80433 0.47413 1.1853 0.5334l0.1016 0.0085c0.22013 0.03387 0.39793 0.05927 0.6096 0.11853 0.1778 0.05927 0.60113 0.18627 0.62653 0.54187 0.0254 0.2794-0.28787 0.65193-0.66887 0.77893-0.13547 0.03387-0.27093 0.0508-0.4064 0.0508-0.69427 0-1.397-0.38947-1.7187-0.9906-0.01693-0.0254-0.03387-0.04233-0.0762-0.0508-0.0254 0-0.04233 0.0085-0.05927 0.0254l-0.0508 0.0762c0 0.46567-0.03387 0.92287-0.0762 1.397 0 0.03387 0.01693 0.06773 0.04233 0.0762 0.508 0.31327 1.1599 0.4826 1.7949 0.4826 1.016 0 2.1421-0.44873 2.2691-1.5917 0.08467-0.5334-0.0508-0.95673-0.4064-1.27z"/>
   <path d="m-67.221 24.92c0-0.05927-0.03387-0.09313-0.09313-0.09313h-0.24553c-1.2954 0-2.5569 0.01693-3.7677 0.04233h-0.01693c-0.0508 0-0.0762 0.0254-0.09313 0.06773-0.03387 0.16087-0.05927 0.32173-0.08467 0.4826-0.01693 0.16933-0.04233 0.3302-0.08467 0.49107-0.01693 0.05927-0.0085 0.11007 0.01693 0.13547 0.01693 0.01693 0.04233 0.0254 0.08467 0.01693 0.39793-0.08467 0.80433-0.1016 1.2023-0.1016h0.26247c0.06773 0 0.11853 0.0508 0.11853 0.11853 0.0085 0.508 0.0085 1.016 0.0085 1.4986v0.56727c0 0.22013 0 0.4572 0.0085 0.6858 0.0254 0.60113 0.04233 1.2192-0.0762 1.8034-0.0085 0.03387 0 0.05927 0.01693 0.08467s0.04233 0.04233 0.08467 0.04233h1.1345c0.0254 0 0.04233-0.0085 0.05927-0.0254 0.03387-0.0254 0.04233-0.0508 0.04233-0.0762-0.09313-1.6256-0.08467-3.3443-0.06773-4.5974 0-0.06773 0.0508-0.11853 0.11007-0.11853 0.22013-0.0085 0.4318-0.01693 0.64347-0.01693 0.18627 0 0.36407 0.0085 0.5334 0.01693 0.11853 0.0254 0.21167 0.0508 0.29633 0.08467l0.0762-0.01693c0.03387-0.0254 0.0508-0.06773 0.04233-0.1016z"/>
   <path d="m-59.355 30.533c-0.04233-0.69427-0.05927-1.4055-0.05927-2.1251 0.01693-0.46567 0.0085-0.9398 0-1.397-0.0085-0.56727-0.01693-1.1515 0.0254-1.7187 0.01693-0.11007 0.0254-0.22013 0.04233-0.37253l-0.05927-0.06773-0.0508-0.01693c-0.37253 0-0.762 0.0085-1.143 0.01693-0.03387 0-0.05927 0.0085-0.0762 0.03387-0.0254 0.0254-0.0254 0.05927-0.0254 0.0762 0.05927 0.46567 0.05927 0.94827 0.06773 1.4139v0.635c-0.0085 0.54187 0 1.1345 0.01693 1.9135v0.06773c0.0085 0.52493 0.01693 1.0753-0.0762 1.6002-0.0085 0.04233 0 0.06773 0.01693 0.09313s0.04233 0.03387 0.06773 0.03387h1.1769c0.03387 0 0.06773-0.01693 0.08467-0.04233 0.0085-0.03387 0.0085-0.06773-0.0085-0.14393z"/>
   <path d="m-53.99 26.461c-0.381-0.99907-1.0922-1.651-2.1929-1.651-0.69427 0-1.3293 0.29633-1.7695 0.82973-0.49107 0.59267-0.65193 1.3885-0.41487 2.1759 0.01693 0.01693 0.0254 0.03387 0.03387 0.0508 0.2794 0.77047 0.9906 1.0414 1.7526 1.0414 0.381 0 0.77893-0.06773 1.1938-0.2286 0.03387 0 0.06773 0.01693 0.09313 0.04233 0.03387 0.04233 0.03387 0.09313 0.0085 0.13547-0.33867 0.56727-0.88053 0.79587-1.5155 0.79587-0.39793 0-0.82127-0.1016-1.0245-0.381-0.0085-0.01693-0.03387-0.03387-0.0762-0.03387-0.01693 0-0.03387 0-0.05927 0.0085-0.03387 0.01693-0.0508 0.0508-0.04233 0.11853 0.0254 0.2286 0.04233 0.46567 0.0508 0.69427 0.0085 0.13547 0.0085 0.26247 0.01693 0.38947 0.0085 0.0254 0.01693 0.0508 0.03387 0.06773 0.0254 0.01693 0.03387 0.0254 0.0508 0.03387 0.3556 0.13547 0.72813 0.2032 1.1091 0.2032 0.64347 0 1.5748-0.24553 1.9981-0.7366 0.8636-0.8128 1.1938-2.4045 0.75353-3.556zm-1.0075 0.49953c-0.2032 0.5588-0.85513 0.84667-1.4224 0.84667-0.24553 0-0.49107-0.05927-0.67733-0.2032-0.18627-0.1524-0.2794-0.381-0.254-0.66887 0.05927-0.7366 0.62653-1.0075 1.0922-1.0245h0.03387c0.51647 0 1.1176 0.31327 1.2277 0.9906 0.0085 0.01693 0 0.04233 0 0.05927z"/>
   <path d="m-48.314 26.825c-0.2286-1.143-1.0329-2.0574-2.2691-2.0574-0.89747 0-1.8034 0.77893-2.1336 1.5833-0.4064 0.97367-0.2286 2.8194 0.19473 3.3867 0.4318 0.6096 1.1515 1.0499 1.905 1.0499 0.49107 0 0.98213-0.16933 1.3631-0.49107 1.1599-0.98213 1.0922-2.5908 0.9398-3.4713zm-1.0583 0.84667c0 0.74507-0.26247 1.9727-1.2107 1.9727-0.4318 0-0.7874-0.22013-1.016-0.62653-0.381-0.69427-0.33867-1.8119 0.09313-2.4977 0.1778-0.2794 0.49953-0.61807 1.0329-0.61807 0.0254 0 0.05927 0 0.14393 0.0085 0.61807 0.2286 0.94827 0.8382 0.95673 1.7611z"/>
   <path d="m-42.894 26.461c-0.381-0.99907-1.0922-1.651-2.1929-1.651-0.69427 0-1.3293 0.29633-1.7695 0.82973-0.49107 0.59267-0.65193 1.3885-0.41487 2.1759 0.01693 0.01693 0.0254 0.03387 0.03387 0.0508 0.2794 0.77047 0.9906 1.0414 1.7526 1.0414 0.381 0 0.77893-0.06773 1.1938-0.2286 0.03387 0 0.06773 0.01693 0.09313 0.04233 0.03387 0.04233 0.03387 0.09313 0.0085 0.13547-0.33867 0.56727-0.88053 0.79587-1.5155 0.79587-0.39793 0-0.82127-0.1016-1.0245-0.381-0.0085-0.01693-0.03387-0.03387-0.0762-0.03387-0.01693 0-0.03387 0-0.05927 0.0085-0.03387 0.01693-0.0508 0.0508-0.04233 0.11853 0.0254 0.2286 0.04233 0.46567 0.0508 0.69427 0.0085 0.13547 0.0085 0.26247 0.01693 0.38947 0.0085 0.0254 0.01693 0.0508 0.03387 0.06773 0.0254 0.01693 0.03387 0.0254 0.0508 0.03387 0.3556 0.13547 0.72813 0.2032 1.1091 0.2032 0.64347 0 1.5748-0.24553 1.9981-0.7366 0.8636-0.8128 1.1938-2.4045 0.75353-3.556zm-1.0075 0.49953c-0.2032 0.5588-0.85513 0.84667-1.4224 0.84667-0.24553 0-0.49107-0.05927-0.67733-0.2032-0.18627-0.1524-0.2794-0.381-0.254-0.66887 0.05927-0.7366 0.62653-1.0075 1.0922-1.0245h0.03387c0.51647 0 1.1176 0.31327 1.2277 0.9906 0.0085 0.01693 0 0.04233 0 0.05927z"/>
   <path d="m-33.347 27.376v0.73587q-0.43408 0.3266-0.80615 0.46716-0.36794 0.14056-0.76895 0.14056-0.45475 0-1.0583-0.24391-0.04547-0.01654-0.06615-0.02481-0.02894-0.0124-0.09095-0.03307-0.64079-0.25632-1.0294-0.25632-0.3638 0-0.71934 0.16123-0.35553 0.1571-0.76068 0.50023v-0.73587q0.43408-0.3266 0.80202-0.46716 0.37207-0.14469 0.77308-0.14469 0.45475 0 1.0625 0.24805 0.04134 0.01654 0.06201 0.0248 0.03307 0.0124 0.09095 0.03307 0.64079 0.25632 1.0294 0.25632 0.35553 0 0.7028-0.1571 0.3514-0.1571 0.77721-0.50436z"/>
   <path d="m-29.315 30.685c0 0.04233 0.04233 0.06773 0.0762 0.06773 0.26247-0.0254 0.5334-0.0254 0.8128-0.0254h0.34713c0.90593 0 1.8288-0.04233 2.4638-0.77893 0.36407-0.42333 0.3302-0.9652 0.23707-1.3547-0.11007-0.44873-0.2794-0.70273-0.6096-0.89747-0.03387-0.01693-0.0508-0.0508-0.05927-0.08467-0.0085-0.03387 0.0085-0.06773 0.03387-0.1016 0.49953-0.5588 0.55033-1.4055 0.127-1.9727-0.23707-0.32173-0.64347-0.52493-1.1938-0.6096-0.55033-0.09313-1.143-0.1016-1.6849-0.1016h-0.4572c-0.04233 0-0.06773 0.01693-0.08467 0.0508-0.01693 0.0254-0.01693 0.04233-0.01693 0.05927v1.1007c-0.0085 0.52493-0.0085 1.0414 0.0085 1.5579 0.03387 0.67733 0.01693 1.3716 0 2.0489-0.0085 0.32173-0.01693 0.65193-0.01693 0.97367zm1.2361-2.3537c0-0.05927 0.06773-0.11007 0.11853-0.1016h0.11853c0.2286 0.0085 0.44027 0.01693 0.6604 0.03387 0.3302 0.0254 0.508 0.0508 0.635 0.36407 0.0762 0.19473 0.1016 0.508-0.08467 0.71967-0.254 0.28787-0.59267 0.33867-0.95673 0.33867-0.11007 0-0.2286 0-0.33867-0.0085h-0.0508c-0.06773-0.0085-0.11853-0.05927-0.11853-0.11853-0.0085-0.22013-0.01693-0.55033-0.01693-0.88053 0-0.06773 0.0085-0.1524 0.01693-0.23707zm-0.0085-2.4045c0-0.11007 0.08467-0.11853 0.16933-0.11853 0.16087 0 0.3302 0 0.49953 0.0254 0.23707 0.0254 0.42333 0.06773 0.52493 0.32173 0.06773 0.14393 0.08467 0.36407 0.0508 0.54187-0.1016 0.54187-0.80433 0.55033-1.1345 0.5588-0.03387 0-0.06773-0.0085-0.08467-0.03387-0.0254-0.01693-0.04233-0.0508-0.04233-0.08467z"/>
   <path d="m-20.304 30.364s-0.0085 0-0.0085-0.0085c-0.0085 0-0.01693-0.0085-0.0254-0.0085-0.39793-0.0762-0.57573-0.4318-0.7366-0.75353l-0.1524-0.3048-0.16933-0.38947-0.0085-0.01693-0.08467-0.2032c0-0.0085-0.0085-0.0085-0.0085-0.01693-0.0085-0.1016 0.0085-0.1524 0.0762-0.1778 0-0.0085 0.0085-0.0085 0.0085-0.0085 0.11007-0.05927 0.22013-0.13547 0.3302-0.21167 0.54187-0.39793 0.762-0.99907 0.65193-1.8203-0.1778-1.3801-1.5917-1.5663-2.9549-1.5663h-0.92287c-0.01693 0-0.0254 0.0085-0.03387 0.0085-0.0085 0-0.01693 0.0085-0.0254 0.0085-0.04233 0.0085-0.06773 0.04233-0.06773 0.08467-0.0085 0.66887 0.0085 4.8006 0.03387 5.5457 0.0085 0.1524 0.0254 0.16933 0.0762 0.16933s0.11007 0 0.16087-0.0085c0.19473-0.01693 0.4064 0 0.6096 0.0085l0.2794 0.01693c0.01693 0 0.0254 0 0.03387-0.0085 0.0508-0.01693 0.06773-0.03387 0.0762-0.0508 0.01693-0.01693 0.01693-0.04233 0.01693-0.06773-0.127-0.55033-0.11853-1.1345-0.1016-1.7865 0-0.06773 0.0508-0.11007 0.11853-0.11007h0.21167c0.0254 0.0085 0.06773 0.0085 0.11853 0.0085 0.14393 0.01693 0.254 0.1524 0.36407 0.42333 0.0085 0.0085 0.0085 0.01693 0.0085 0.0254 0.14393 0.3302 0.29633 0.6858 0.4064 0.88053l0.0508 0.08467c0.13547 0.23707 0.29633 0.52493 0.54187 0.635 0.14393 0.06773 0.33867 0.11007 0.51647 0.11007 0.16087 0 0.3048-0.03387 0.4064-0.08467 0.13547-0.0762 0.22013-0.18627 0.23707-0.3302 0.0085-0.03387 0-0.05927-0.03387-0.0762zm-2.9464-3.5391-0.0085-0.0508c0-0.254-0.0085-0.51647 0-0.77893 0-0.05927 0.0508-0.11007 0.11007-0.11007l0.05927-0.0085c0.13547-0.0085 0.2794-0.0254 0.4318-0.0254 0.1778 0 0.32173 0.01693 0.44873 0.05927 0.2794 0.0762 0.5334 0.2794 0.65193 0.52493 0.06773 0.14393 0.127 0.36407 0.01693 0.62653-0.2286 0.55033-0.70273 0.62653-1.1853 0.62653-0.1016 0-0.2032-0.0085-0.3302-0.0085l-0.08467-0.0085c-0.05927 0-0.11007-0.0508-0.11007-0.11853z"/>
   <path d="m-13.979 27.536c-0.127-1.6595-1.0414-2.7347-2.7601-2.7347-0.19473 0-0.381 0.01693-0.62653 0.0508-1.1599 0.2794-1.9897 1.2107-2.159 2.4215-0.16933 1.2023 0.28787 2.3707 1.1599 2.9718l0.03387 0.04233c0.41487 0.31327 0.9652 0.49107 1.5579 0.49107 0.7874 0 1.6679-0.33867 2.1675-0.9652l0.03387-0.04233c0.0254-0.03387 0.0508-0.06773 0.06773-0.09313l0.0254-0.03387c0.01693-0.0254 0.03387-0.04233 0.05927-0.1016 0.3302-0.5588 0.46567-1.1769 0.44027-2.0066zm-1.9135 1.9219c-0.22013 0.1778-0.4826 0.26247-0.77893 0.26247-0.7366 0-1.1345-0.3302-1.4986-0.95673-0.2794-0.57573-0.26247-1.5155 0.0254-2.0574 0.29633-0.54187 0.7366-0.82973 1.3547-0.889 0.82127 0.0508 1.3123 0.42333 1.5663 1.1938 0.28787 0.9398 0.0254 1.8965-0.66887 2.4469z"/>
   <path d="m-7.5464 27.536c-0.127-1.6595-1.0414-2.7347-2.7601-2.7347-0.19473 0-0.381 0.01693-0.62653 0.0508-1.1599 0.2794-1.9897 1.2107-2.159 2.4215-0.16933 1.2023 0.28787 2.3707 1.1599 2.9718l0.03387 0.04233c0.41487 0.31327 0.9652 0.49107 1.5579 0.49107 0.7874 0 1.6679-0.33867 2.1675-0.9652l0.03387-0.04233c0.0254-0.03387 0.0508-0.06773 0.06773-0.09313l0.0254-0.03387c0.01693-0.0254 0.03387-0.04233 0.05927-0.1016 0.3302-0.5588 0.46567-1.1769 0.44027-2.0066zm-1.9135 1.9219c-0.22013 0.1778-0.4826 0.26247-0.77893 0.26247-0.7366 0-1.1345-0.3302-1.4986-0.95673-0.2794-0.57573-0.26247-1.5155 0.0254-2.0574 0.29633-0.54187 0.7366-0.82973 1.3547-0.889 0.82127 0.0508 1.3123 0.42333 1.5663 1.1938 0.28787 0.9398 0.0254 1.8965-0.66887 2.4469z"/>
   <path d="m-5.491 28.645c0-0.03387 0.016933-0.06773 0.042333-0.08467l0.5588-0.5588c0.016933-0.01693 0.0508-0.03387 0.1016-0.03387 0.042333 0.0085 0.067733 0.03387 0.084667 0.06773 0.67733 1.3716 1.0499 2.2691 1.1853 2.7178 0.23707-0.0254 0.4826-0.04233 0.71967-0.04233 0.19473 0 0.381 0.0085 0.6096 0.03387 0.033867 0 0.059267-0.01693 0.084667-0.03387 0.0254-0.03387 0.0254-0.06773 0.00847-0.11007-0.4318-0.7874-0.8382-1.5917-1.2277-2.3707-0.2032-0.39793-0.39793-0.7874-0.60113-1.1853-0.0254-0.04233-0.016933-0.09313 0.016933-0.13547 0.2794-0.32173 0.5588-0.65193 0.82127-0.97367 0.27093-0.3302 0.52493-0.635 0.7874-0.9398 0.033867-0.03387 0.042333-0.08467 0.0254-0.11853-0.016933-0.0508-0.059267-0.0508-0.084667-0.0508-0.32173 0.01693-0.6604 0.04233-1.0075 0.04233-0.14393 0-0.28787-0.0085-0.44027-0.01693-0.0508 0-0.0762 0-0.1016 0.0508-0.16933 0.381-0.44873 0.72813-0.71967 1.0668l-0.14393 0.18627c-0.1778 0.22013-0.34713 0.42333-0.51647 0.6096-0.0254 0.0254-0.059267 0.04233-0.13547 0.03387-0.042333-0.01693-0.0762-0.06773-0.0762-0.11007-0.00847-0.5842-0.016933-1.1515 0.0508-1.7695 0-0.0254-0.00847-0.04233-0.016933-0.05927-0.0254-0.0254-0.0508-0.03387-0.0762-0.03387-0.1778 0-0.34713 0.0085-0.52493 0.01693-0.1778 0.0085-0.3556 0.01693-0.5334 0.01693-0.042333 0-0.059267 0.01693-0.0762 0.0254-0.016933 0.0254-0.016933 0.05927-0.016933 0.08467 0.0254 0.8128 0.0254 2.8363 0.0254 3.6999v0.32173c0 0.42333-0.00847 0.8636-0.016933 1.3547v0.11853c0 0.05927 0 0.11007-0.00847 0.16933 0 0.0254 0.016933 0.05927 0.033867 0.06773 0.016933 0.01693 0.042333 0.0254 0.059267 0.0254 0.00847 0 0.016933-0.0085 0.059267-0.0085h0.084667c0.16087 0 0.32173 0.0085 0.4826 0.0085s0.32173-0.0085 0.4826-0.01693c0.0508 0 0.084667-0.0254 0.093133-0.127-0.1016-0.55033-0.093133-1.1345-0.093133-1.7103z"/>
   <path d="m2.8272 24.92c0-0.05927-0.033867-0.09313-0.093133-0.09313h-0.24553c-1.2954 0-2.5569 0.01693-3.7677 0.04233h-0.016933c-0.0508 0-0.0762 0.0254-0.093133 0.06773-0.033867 0.16087-0.059267 0.32173-0.084667 0.4826-0.016933 0.16933-0.042333 0.3302-0.084667 0.49107-0.016933 0.05927-0.00847 0.11007 0.016933 0.13547 0.016933 0.01693 0.042333 0.0254 0.084667 0.01693 0.39793-0.08467 0.80433-0.1016 1.2023-0.1016h0.26247c0.067733 0 0.11853 0.0508 0.11853 0.11853 0.00847 0.508 0.00847 1.016 0.00847 1.4986v0.56727c0 0.22013 0 0.4572 0.00847 0.6858 0.0254 0.60113 0.042333 1.2192-0.0762 1.8034-0.00847 0.03387 0 0.05927 0.016933 0.08467s0.042333 0.04233 0.084667 0.04233h1.1345c0.0254 0 0.042333-0.0085 0.059267-0.0254 0.033867-0.0254 0.042333-0.0508 0.042333-0.0762-0.093133-1.6256-0.084667-3.3443-0.067733-4.5974 0-0.06773 0.0508-0.11853 0.11007-0.11853 0.22013-0.0085 0.4318-0.01693 0.64347-0.01693 0.18627 0 0.36407 0.0085 0.5334 0.01693 0.11853 0.0254 0.21167 0.0508 0.29633 0.08467l0.0762-0.01693c0.033867-0.0254 0.0508-0.06773 0.042333-0.1016z"/>
   <path d="m9.1389 27.536c-0.127-1.6595-1.0414-2.7347-2.7601-2.7347-0.19473 0-0.381 0.01693-0.62653 0.0508-1.1599 0.2794-1.9897 1.2107-2.159 2.4215-0.16933 1.2023 0.28787 2.3707 1.1599 2.9718l0.033867 0.04233c0.41487 0.31327 0.9652 0.49107 1.5579 0.49107 0.7874 0 1.6679-0.33867 2.1675-0.9652l0.033867-0.04233c0.0254-0.03387 0.0508-0.06773 0.067733-0.09313l0.0254-0.03387c0.016933-0.0254 0.033867-0.04233 0.059267-0.1016 0.3302-0.5588 0.46567-1.1769 0.44027-2.0066zm-1.9135 1.9219c-0.22013 0.1778-0.4826 0.26247-0.77893 0.26247-0.7366 0-1.1345-0.3302-1.4986-0.95673-0.2794-0.57573-0.26247-1.5155 0.0254-2.0574 0.29633-0.54187 0.7366-0.82973 1.3547-0.889 0.82127 0.0508 1.3123 0.42333 1.5663 1.1938 0.28787 0.9398 0.0254 1.8965-0.66887 2.4469z"/>
   <path d="m13.675 30.702c0.0254 0.03387 0.04233 0.04233 0.08467 0.04233l0.72813-0.0085c0.04233 0 0.09313-0.0508 0.09313-0.09313 0.01693-0.22013 0.0085-0.42333 0-0.61807-0.0085-0.11853-0.0085-0.2286-0.0085-0.33867-0.0085-0.51647-0.01693-4.2164 0.0085-4.6821 0-0.04233 0-0.09313-0.0254-0.11853 0 0-0.01693-0.01693-0.05927-0.01693l-1.1176-0.0254c-0.03387 0-0.0762 0.0085-0.09313 0.05927-0.01693 0.0254-0.01693 0.0508-0.0085 0.0762 0.16933 0.5842 0.16087 1.2023 0.16087 1.7949v0.1524c0 0.31327-0.0085 0.65193-0.01693 1.0414 0 0.04233-0.03387 0.08467-0.11853 0.11007-0.03387 0-0.06773-0.01693-0.09313-0.04233-0.4064-0.46567-0.762-0.89747-1.0329-1.3631-0.16931-0.27938-0.35557-0.55031-0.54184-0.80431-0.21167-0.31327-0.44027-0.62653-0.65193-0.99907-0.03387-0.03387-0.04233-0.03387-0.08467-0.03387-0.1524 0.0085-0.31327 0.01693-0.47413 0.01693-0.09313 0-0.19473 0-0.29633-0.0085-0.04233 0-0.06773 0.01693-0.08467 0.0254-0.01693 0.01693-0.03387 0.04233-0.03387 0.06773l-0.0085 0.44027c-0.0085 0.57573-0.01693 1.1684 0.01693 1.7357v0.4572c0.0085 0.9906 0.01693 2.0066 0.0085 3.0649 0.01693 0.0508 0.0508 0.0762 0.09313 0.0762 0.37253 0 0.7366 0.0085 1.1091 0.01693 0.03387 0 0.06773-0.0085 0.08467-0.03387 0.0254-0.0254 0.0254-0.0508 0.0254-0.08467-0.1524-0.66887-0.13547-1.3547-0.11853-2.0235 0.0085-0.3302 0.01693-0.66887 0-0.99907 0-0.05927 0.03387-0.1016 0.127-0.127 0.03387 0 0.0762 0.01693 0.09313 0.0508 0.3048 0.4572 0.62653 0.89747 0.9398 1.3208 0.44027 0.60113 0.89747 1.2277 1.2954 1.8711z"/>
   <path d="m24.573 30.702c0.0254 0.03387 0.04233 0.04233 0.08467 0.04233l0.72813-0.0085c0.04233 0 0.09313-0.0508 0.09313-0.09313 0.01693-0.22013 0.0085-0.42333 0-0.61807-0.0085-0.11853-0.0085-0.2286-0.0085-0.33867-0.0085-0.51647-0.01693-4.2164 0.0085-4.6821 0-0.04233 0-0.09313-0.0254-0.11853 0 0-0.01693-0.01693-0.05927-0.01693l-1.1176-0.0254c-0.03387 0-0.0762 0.0085-0.09313 0.05927-0.01693 0.0254-0.01693 0.0508-0.0085 0.0762 0.16933 0.5842 0.16087 1.2023 0.16087 1.7949v0.1524c0 0.31327-0.0085 0.65193-0.01693 1.0414 0 0.04233-0.03387 0.08467-0.11853 0.11007-0.03387 0-0.06773-0.01693-0.09313-0.04233-0.4064-0.46567-0.762-0.89747-1.0329-1.3631-0.16933-0.2794-0.3556-0.55033-0.54187-0.80433-0.21167-0.31327-0.44027-0.62653-0.65193-0.99907-0.03387-0.03387-0.04233-0.03387-0.08467-0.03387-0.1524 0.0085-0.31327 0.01693-0.47413 0.01693-0.09313 0-0.19473 0-0.29633-0.0085-0.04233 0-0.06773 0.01693-0.08467 0.0254-0.01693 0.01693-0.03387 0.04233-0.03387 0.06773l-0.0085 0.44027c-0.0085 0.57573-0.01693 1.1684 0.01693 1.7357v0.4572c0.0085 0.9906 0.01693 2.0066 0.0085 3.0649 0.01693 0.0508 0.0508 0.0762 0.09313 0.0762 0.37253 0 0.7366 0.0085 1.1091 0.01693 0.03387 0 0.06773-0.0085 0.08467-0.03387 0.0254-0.0254 0.0254-0.0508 0.0254-0.08467-0.1524-0.66887-0.13547-1.3547-0.11853-2.0235 0.0085-0.3302 0.01693-0.66887 0-0.99907 0-0.05927 0.03387-0.1016 0.127-0.127 0.03387 0 0.0762 0.01693 0.09313 0.0508 0.3048 0.4572 0.62653 0.89747 0.9398 1.3208 0.44027 0.60113 0.89747 1.2277 1.2954 1.8711z"/>
   <path d="m31.529 24.852c-0.09313 0-0.18627 0-0.28787 0.0085-0.21167 0.0085-0.42333 0.01693-0.635 0.01693-0.11007 0-0.22013 0-0.33867-0.0085-0.03387 0-0.0762 0.01693-0.09313 0.1016-0.03387 0.3556-0.27093 0.71967-0.4826 1.0414-0.13547 0.21167-0.27093 0.41487-0.4064 0.62653-0.05927 0.09313-0.11853 0.1778-0.1778 0.27093-0.0254 0.03387-0.05927 0.0508-0.1016 0.0508-0.04233 0.0085-0.0762-0.01693-0.1016-0.04233-0.127-0.1778-0.24553-0.3556-0.36407-0.54187l-0.14393-0.21167c-0.0508-0.0762-0.1016-0.1524-0.16087-0.23707-0.22013-0.3048-0.47413-0.64347-0.508-0.9906-0.0085-0.03387-0.03387-0.06773-0.06773-0.08467-0.0254-0.0085-0.04233-0.01693-0.06773-0.01693l-1.1684 0.03387c-0.0254 0-0.05927 0.0085-0.0762 0.04233-0.0254 0.03387-0.01693 0.0762 0.0085 0.127 0.44027 0.5842 0.82973 1.2277 1.2107 1.8457 0.254 0.42333 0.51647 0.84667 0.7874 1.2531 0.0085 0.0254 0.01693 0.04233 0.01693 0.06773 0 0.21167-0.0085 0.41487-0.01693 0.60113 0 0.13547-0.0085 0.26247-0.0085 0.39793-0.0085 0.14393 0 0.28787 0 0.4318 0.01693 0.3302 0.0254 0.64347-0.05927 0.97367-0.01693 0.0508 0.0085 0.09313 0.0762 0.11853l0.04233 0.0085c0.0762 0.0085 0.16933 0.0085 0.27093 0.0085 0.127 0 0.26247 0 0.39793-0.0085 0.14393-0.0085 0.29633-0.0085 0.42333-0.0085h0.0254c0.03387 0 0.05927-0.0085 0.06773-0.0254 0.01693-0.01693 0.0254-0.03387 0.0254-0.06773-0.06773-0.55033-0.05927-1.1176-0.0508-1.6595v-0.71967c0-0.01693 0.0085-0.04233 0.0254-0.06773 0.26247-0.381 0.49953-0.77047 0.72813-1.1515l0.19473-0.31327c0.16087-0.26247 0.3302-0.51647 0.4826-0.74507 0.21167-0.32173 0.42333-0.64347 0.62653-1.0583-0.0085-0.03387-0.0254-0.0762-0.09313-0.06773z"/>
  </g>
 </g>
</svg>
